<?xml version="1.0" encoding="utf-8"?>
<!-- Generator: Adobe Illustrator 19.2.1, SVG Export Plug-In . SVG Version: 6.00 Build 0)  -->
<svg version="1.1" xmlns="http://www.w3.org/2000/svg" xmlns:xlink="http://www.w3.org/1999/xlink" x="0px" y="0px"
	 viewBox="0 0 584 516" style="enable-background:new 0 0 584 516;" xml:space="preserve">
<style type="text/css">
	.st0{fill:none;stroke:#999999;stroke-miterlimit:10;}
	.st1{fill:#999999;}
	.st2{display:none;fill:none;stroke:#999999;stroke-miterlimit:10;}
	.st3{opacity:0.33;}
	.st4{fill:#0071BC;}
	.st5{opacity:0.15;}
	.st6{opacity:0.25;}
</style>
<g id="land">
	<g>
		<g>
			<path class="st0" d="M337.4,182.2"/>
		</g>
	</g>
	<g>
		<g>
			<path class="st0" d="M290.7,215.7"/>
		</g>
	</g>
	<g>
		<g>
			<polygon class="st1" points="348.3,508.7 348,508.3 192.2,285.8 192.6,285.6 290.1,215.6 290.6,216.4 193.6,286.1 348.6,507.3 
				575,346.6 419.7,123.7 339.7,181.1 339.1,180.3 419.9,122.3 420.2,122.7 576.4,346.8 576,347.1 			"/>
		</g>
	</g>
	<g>
		<g>
			<path class="st0" d="M339.4,180.7"/>
		</g>
	</g>
	<g>
		<g>
			<path class="st0" d="M290.3,216"/>
		</g>
	</g>
	<g>
		<g>
			<path class="st0" d="M290.4,216"/>
		</g>
	</g>
	<g>
		<g>
			<polygon class="st1" points="339.5,180.7 184.6,79 185.2,78.1 340.7,180.3 340.1,180.7 339.7,180.3 			"/>
		</g>
	</g>
	<g>
		<g>
			<path class="st0" d="M184.9,78.6"/>
		</g>
	</g>
	<g>
		<g>
			<path class="st0" d="M137.1,112.9"/>
		</g>
	</g>
	<g>
		<g>
			<polygon class="st1" points="290.3,216.6 290,216.4 134.5,115.1 135,114.2 290.5,215.6 290.3,215.9 290.6,216.4 			"/>
		</g>
	</g>
	<g>
		<g>
			<rect x="339.3" y="180.5" class="st1" width="1" height="35.8"/>
		</g>
	</g>
	<g>
		<g>
			<rect x="339.3" y="180.3" class="st1" width="1" height="0.2"/>
		</g>
	</g>
	<g>
		<g>
			
				<rect x="289.9" y="216" transform="matrix(1 -9.992141e-003 9.992141e-003 1 -2.3164 2.9137)" class="st1" width="1" height="34.5"/>
		</g>
	</g>
	<g>
		<g>
			
				<rect x="285.2" y="232.9" transform="matrix(0.8201 -0.5722 0.5722 0.8201 -76.8463 222.3111)" class="st1" width="59.9" height="1"/>
		</g>
	</g>
	<g>
		<g>
			<rect x="184.4" y="78.6" class="st1" width="1" height="36.1"/>
		</g>
	</g>
	<g>
		<g>
			
				<rect x="157.6" y="122.7" transform="matrix(0.8201 -0.5722 0.5722 0.8201 -39.4419 120.9253)" class="st1" width="30" height="1"/>
		</g>
	</g>
	<g>
		<g>
			
				<rect x="326.3" y="192.1" transform="matrix(0.5486 -0.8361 0.8361 0.5486 -26.1711 366.9392)" class="st1" width="1" height="31.1"/>
		</g>
	</g>
	<g>
		<g>
			
				<rect x="248.8" y="79.9" transform="matrix(0.5486 -0.8361 0.8361 0.5486 -18.6396 279.2692)" class="st1" width="1" height="154.1"/>
		</g>
	</g>
	<g>
		<g>
			<polygon class="st1" points="340.1,180.7 339.5,179.9 418.9,123.1 262.4,23.6 185.2,79 184.6,78.1 262.3,22.4 262.6,22.5 
				420.7,123 			"/>
		</g>
	</g>
	<g>
		<g>
			<path class="st0" d="M184.9,78.6"/>
		</g>
	</g>
	<g>
		<g>
			<path class="st0" d="M140.4,110.4"/>
		</g>
	</g>
	<g>
		<g>
			<polygon class="st1" points="192.3,286.5 192.1,286.3 30.4,188.4 134.5,113.9 135,114.7 32.2,188.4 192.3,285.3 289.8,215.4 
				290.4,216.3 			"/>
		</g>
	</g>
	<g>
		<g>
			<rect x="30.8" y="188.4" class="st1" width="1" height="115.6"/>
		</g>
	</g>
	<g>
		<g>
			
				<rect x="187.4" y="218.5" transform="matrix(0.5409 -0.8411 0.8411 0.5409 -254.1427 343.8821)" class="st1" width="1" height="372.5"/>
		</g>
	</g>
</g>
<g id="water">
	<polyline class="st2" points="339.7,180.4 419.8,123 578.1,223.1 348.4,387.2 192.9,286 290.4,216 	"/>
	<line class="st2" x1="348.4" y1="387.2" x2="348.4" y2="508"/>
	<line class="st2" x1="578.1" y1="223.1" x2="571.1" y2="351"/>
	<g class="st3">
		<g>
			<polygon class="st4" points="193.6,287 348,387.2 348,508 			"/>
		</g>
	</g>
	<g class="st5">
		<g>
			<polygon class="st4" points="419.8,123 578.1,223.1 575.7,346.7 			"/>
		</g>
	</g>
	<g class="st6">
		<g>
			<polygon class="st4" points="348,508 348,387.2 578.1,223.1 575.9,346.7 			"/>
		</g>
	</g>
	<g class="st5">
		<g>
			<polygon class="st4" points="348,387.2 192.9,286 419.8,123 578.1,223.1 			"/>
		</g>
	</g>
	<g class="st5">
		<g>
			<polygon class="st4" points="290.4,216 134.7,114.6 184.9,78.6 339.7,180.4 			"/>
		</g>
	</g>
</g>
<g id="labels">
	<g>
		<g>
			<g>
				<rect x="119.6" y="88.9" transform="matrix(0.8242 -0.5664 0.5664 0.8242 -24.8835 98.6971)" width="53.9" height="1"/>
			</g>
		</g>
		<g>
			<g>
				<g>
					<polygon points="131,104 130.7,103 124.4,104.6 128.2,99.3 127.4,98.7 122,106.3 					"/>
				</g>
			</g>
		</g>
		<g>
			<g>
				<g>
					<polygon points="165.6,80.1 164.8,79.5 168.6,74.2 162.3,75.9 162,74.9 171,72.6 					"/>
				</g>
			</g>
		</g>
	</g>
	<g>
		<g>
			<g>
				<rect x="66.1" y="14.3" transform="matrix(0.5328 -0.8462 0.8462 0.5328 -0.3176 75.953)" width="5" height="47.9"/>
			</g>
		</g>
		<g>
			<g>
				<g>
					<polygon points="99,57.4 88.4,42.6 88.1,50.5 81.1,54.3 					"/>
				</g>
			</g>
		</g>
	</g>
	<g>
		<g>
			<path d="M348.6,508.1l-149.6-96l0.3-0.4c6.2-9.6,13.3-18.6,21.2-26.8c7.9-8.2,16.7-15.7,26-22.2l0.4-0.3L348.6,508.1z
				 M200.4,411.9l144.5,92.7l-98.2-140.8c-9.1,6.4-17.7,13.8-25.4,21.8C213.5,393.6,206.5,402.5,200.4,411.9z"/>
		</g>
	</g>
	<g>
		<g>
			<path d="M221.1,161.6C221.1,161.7,221.1,161.7,221.1,161.6c-0.1,0.1-0.2,0.1-0.2,0.1c-0.1,0-0.1,0-0.2-0.1s-0.2-0.1-0.4-0.2
				c-0.1-0.1-0.2-0.2-0.3-0.2c-0.1-0.1-0.1-0.1-0.2-0.2s-0.1-0.1-0.1-0.2c0-0.1,0-0.1,0-0.2l0.6-2.8c0.1-0.3,0.1-0.6,0.1-0.9
				c0-0.3,0-0.6,0-0.8c-0.1-0.3-0.2-0.5-0.3-0.7c-0.2-0.2-0.4-0.4-0.7-0.6l-0.9-0.5l-2.6,4.1c0,0-0.1,0.1-0.1,0.1c0,0-0.1,0-0.1,0
				c-0.1,0-0.1,0-0.2-0.1c-0.1,0-0.2-0.1-0.3-0.2c-0.1-0.1-0.2-0.1-0.3-0.2c-0.1-0.1-0.1-0.1-0.2-0.2c0,0-0.1-0.1-0.1-0.1
				c0,0,0-0.1,0-0.1l5.7-8.9c0.1-0.2,0.3-0.3,0.4-0.3c0.2,0,0.3,0,0.4,0.1l2,1.3c0.2,0.2,0.4,0.3,0.6,0.4s0.3,0.2,0.4,0.3
				c0.3,0.3,0.6,0.6,0.8,0.9c0.2,0.3,0.3,0.6,0.4,1c0.1,0.3,0,0.7,0,1c-0.1,0.3-0.2,0.7-0.4,1c-0.2,0.3-0.4,0.6-0.7,0.8
				c-0.2,0.2-0.5,0.3-0.8,0.4c-0.3,0.1-0.6,0.1-0.9,0.1c-0.3,0-0.7,0-1-0.1c0.1,0.2,0.2,0.3,0.3,0.5c0.1,0.2,0.1,0.4,0.1,0.6
				c0,0.2,0,0.5,0,0.7c0,0.3-0.1,0.5-0.1,0.8l-0.5,2.7c0,0.2-0.1,0.4-0.1,0.5C221.2,161.5,221.1,161.6,221.1,161.6z M223.5,153.7
				c0.2-0.4,0.4-0.7,0.4-1.1s-0.2-0.7-0.5-1.1c-0.1-0.1-0.2-0.2-0.4-0.3c-0.1-0.1-0.3-0.3-0.6-0.4l-1.1-0.7l-2.1,3.2l1.2,0.8
				c0.3,0.2,0.7,0.4,0.9,0.4c0.3,0.1,0.6,0.1,0.8,0c0.3,0,0.5-0.1,0.7-0.3C223.2,154.1,223.4,153.9,223.5,153.7z"/>
		</g>
		<g>
			<path d="M224,163.5C224,163.5,224,163.6,224,163.5c-0.1,0.1-0.2,0.1-0.2,0.1c-0.1,0-0.1,0-0.2-0.1c-0.1,0-0.2-0.1-0.3-0.2
				c-0.1-0.1-0.2-0.1-0.3-0.2c-0.1-0.1-0.1-0.1-0.2-0.2c0,0-0.1-0.1-0.1-0.1c0,0,0-0.1,0-0.1l4.3-6.7c0,0,0.1-0.1,0.1-0.1
				s0.1,0,0.1,0c0.1,0,0.1,0,0.2,0.1s0.2,0.1,0.3,0.2c0.1,0.1,0.2,0.1,0.3,0.2c0.1,0.1,0.1,0.1,0.2,0.2c0,0,0,0.1,0,0.1
				c0,0,0,0.1,0,0.1L224,163.5z M229.9,154.7c-0.2,0.3-0.4,0.4-0.5,0.5c-0.2,0-0.4,0-0.7-0.2c-0.3-0.2-0.5-0.4-0.5-0.5
				c0-0.2,0-0.4,0.2-0.7c0.2-0.3,0.4-0.4,0.5-0.5c0.2,0,0.4,0,0.7,0.2c0.3,0.2,0.5,0.4,0.5,0.5C230.1,154.2,230.1,154.4,229.9,154.7
				z"/>
		</g>
		<g>
			<path d="M236,161.8C236,161.8,236,161.8,236,161.8c-0.1,0.1-0.1,0.1-0.1,0.1c0,0,0,0-0.1,0.1c0,0-0.1,0.1-0.1,0.1l-6.3,4.9
				c-0.1,0-0.1,0.1-0.2,0.1c-0.1,0-0.1,0-0.2,0c-0.1,0-0.2-0.1-0.3-0.1c-0.1-0.1-0.2-0.1-0.4-0.2c-0.1-0.1-0.3-0.2-0.4-0.3
				c-0.1-0.1-0.2-0.1-0.2-0.2c0-0.1-0.1-0.1-0.1-0.2c0-0.1,0-0.1,0-0.2l1.8-7.8c0-0.1,0-0.1,0.1-0.2c0-0.1,0-0.1,0-0.1
				c0,0,0,0,0-0.1c0,0,0.1-0.1,0.1-0.1c0,0,0.1,0,0.1,0c0.1,0,0.1,0,0.2,0.1c0.1,0,0.2,0.1,0.3,0.2c0.1,0.1,0.3,0.2,0.3,0.2
				c0.1,0.1,0.1,0.1,0.2,0.2c0,0.1,0.1,0.1,0.1,0.1c0,0,0,0.1,0,0.2l-1.6,6.7l0,0.1l0.1-0.1l5.4-4.3c0,0,0.1-0.1,0.1-0.1
				c0,0,0.1,0,0.2,0c0.1,0,0.1,0,0.2,0.1c0.1,0,0.2,0.1,0.3,0.2c0.1,0.1,0.2,0.1,0.3,0.2c0.1,0.1,0.1,0.1,0.2,0.1c0,0,0,0.1,0,0.1
				C236.1,161.7,236.1,161.7,236,161.8z"/>
		</g>
		<g>
			<path d="M241,169.2c-0.1,0.2-0.3,0.3-0.4,0.3c-0.1,0-0.3,0-0.4-0.1l-4.4-2.8c-0.2,0.4-0.4,0.7-0.5,1.1c-0.1,0.3-0.2,0.7-0.1,1
				c0,0.3,0.2,0.6,0.4,0.9s0.5,0.6,0.9,0.8c0.3,0.2,0.6,0.4,0.9,0.5c0.3,0.1,0.5,0.2,0.8,0.2c0.2,0.1,0.4,0.1,0.6,0.1
				c0.1,0,0.3,0.1,0.3,0.1c0,0,0.1,0.1,0.1,0.1c0,0,0,0.1,0,0.1c0,0,0,0.1-0.1,0.2c0,0.1-0.1,0.1-0.1,0.2c0,0.1-0.1,0.1-0.1,0.2
				c0,0-0.1,0.1-0.1,0.1c0,0-0.1,0.1-0.1,0.1s-0.1,0-0.1,0c0,0-0.2,0-0.3,0c-0.2,0-0.4-0.1-0.6-0.2c-0.3-0.1-0.5-0.2-0.8-0.3
				c-0.3-0.1-0.6-0.3-0.9-0.5c-0.5-0.3-1-0.7-1.3-1.1c-0.3-0.4-0.5-0.9-0.6-1.3s-0.1-1,0.1-1.5c0.1-0.5,0.4-1.1,0.8-1.7
				c0.4-0.6,0.8-1,1.2-1.4c0.4-0.4,0.9-0.6,1.4-0.8c0.5-0.1,1-0.2,1.5-0.1c0.5,0.1,1,0.3,1.5,0.6c0.5,0.3,0.9,0.7,1.2,1.1
				c0.3,0.4,0.4,0.8,0.5,1.3c0.1,0.4,0,0.9-0.1,1.3c-0.1,0.5-0.3,0.9-0.6,1.3L241,169.2z M240,168.1c0.4-0.6,0.6-1.2,0.5-1.8
				c-0.1-0.6-0.4-1-1-1.4c-0.3-0.2-0.6-0.3-0.9-0.3c-0.3,0-0.6,0-0.9,0.1c-0.3,0.1-0.5,0.2-0.8,0.4s-0.5,0.4-0.6,0.7L240,168.1z"/>
		</g>
		<g>
			<path d="M248.4,170.3c-0.1,0.1-0.1,0.2-0.2,0.3c-0.1,0.1-0.1,0.1-0.1,0.2c0,0-0.1,0.1-0.1,0.1c0,0-0.1,0-0.1,0s-0.1-0.1-0.1-0.1
				c0-0.1-0.1-0.1-0.1-0.2c-0.1-0.1-0.1-0.1-0.2-0.2c-0.1-0.1-0.2-0.1-0.3-0.2c-0.1-0.1-0.3-0.1-0.4-0.2c-0.2,0-0.3,0-0.5,0
				c-0.2,0-0.4,0.1-0.7,0.2c-0.3,0.1-0.6,0.2-0.9,0.4l-2.8,4.4c0,0-0.1,0.1-0.1,0.1c0,0-0.1,0-0.1,0c-0.1,0-0.1,0-0.2-0.1
				c-0.1,0-0.2-0.1-0.3-0.2c-0.1-0.1-0.2-0.1-0.3-0.2s-0.1-0.1-0.2-0.2c0-0.1-0.1-0.1-0.1-0.1c0,0,0-0.1,0-0.1l4.3-6.7
				c0,0,0.1-0.1,0.1-0.1c0,0,0.1,0,0.1,0s0.1,0,0.2,0.1c0.1,0,0.2,0.1,0.3,0.2c0.1,0.1,0.2,0.1,0.3,0.2c0.1,0.1,0.1,0.1,0.1,0.2
				c0,0,0,0.1,0,0.1c0,0,0,0.1,0,0.1l-0.6,1c0.4-0.2,0.7-0.3,0.9-0.3c0.3-0.1,0.5-0.1,0.7-0.1c0.2,0,0.4,0,0.6,0.1
				c0.2,0.1,0.3,0.1,0.5,0.2c0.1,0,0.1,0.1,0.2,0.2c0.1,0.1,0.2,0.1,0.2,0.2c0.1,0.1,0.1,0.2,0.2,0.2c0.1,0.1,0.1,0.1,0.1,0.2
				c0,0,0,0.1,0,0.1c0,0,0,0.1,0,0.1c0,0,0,0.1-0.1,0.2C248.6,170.1,248.5,170.2,248.4,170.3z"/>
		</g>
	</g>
	<g>
		<g>
			<path d="M449.5,300.5c0.2,0.3,0.4,0.6,0.5,0.9c0.1,0.3,0.2,0.6,0.2,0.9s0,0.6-0.1,0.9s-0.2,0.6-0.4,0.8c-0.2,0.3-0.4,0.5-0.6,0.8
				c-0.2,0.2-0.5,0.5-0.9,0.7l-2.4,1.7c-0.1,0.1-0.2,0.1-0.4,0.1c-0.2,0-0.3-0.1-0.4-0.3l-5.9-8.3c-0.1-0.2-0.2-0.4-0.1-0.5
				s0.1-0.3,0.2-0.3l2.1-1.5c0.6-0.4,1-0.7,1.5-0.8c0.4-0.1,0.8-0.2,1.2-0.2c0.4,0,0.7,0.2,1.1,0.4c0.3,0.2,0.6,0.5,0.9,0.9
				c0.2,0.2,0.3,0.4,0.4,0.7c0.1,0.2,0.1,0.5,0.2,0.7c0,0.2,0,0.5-0.1,0.7c-0.1,0.2-0.2,0.5-0.3,0.7c0.3-0.1,0.6-0.2,0.9-0.2
				s0.6,0,0.9,0.1c0.3,0.1,0.6,0.2,0.9,0.4C449,299.9,449.3,300.2,449.5,300.5z M444.7,297.7c-0.2-0.2-0.3-0.4-0.5-0.5
				s-0.4-0.2-0.6-0.3c-0.2,0-0.5,0-0.7,0.1c-0.3,0.1-0.6,0.3-0.9,0.5l-1.3,0.9l2.1,3l1.4-1c0.3-0.2,0.5-0.5,0.7-0.7
				c0.1-0.2,0.2-0.5,0.2-0.7s0-0.5-0.1-0.7C445,298.1,444.9,297.9,444.7,297.7z M448.3,301.5c-0.2-0.3-0.4-0.5-0.7-0.6
				c-0.2-0.1-0.5-0.2-0.8-0.3s-0.6,0-0.9,0.1c-0.3,0.1-0.7,0.3-1,0.6l-1.5,1.1l2.3,3.3l1.8-1.3c0.3-0.2,0.5-0.4,0.7-0.6
				c0.2-0.2,0.3-0.4,0.3-0.7c0.1-0.2,0.1-0.5,0-0.8C448.6,302,448.5,301.7,448.3,301.5z"/>
		</g>
		<g>
			<path d="M457.9,298.3c0,0.1,0.1,0.1,0,0.2c0,0.1-0.1,0.1-0.1,0.2c-0.1,0.1-0.1,0.1-0.3,0.2c-0.1,0.1-0.2,0.2-0.3,0.2
				c-0.1,0-0.2,0.1-0.2,0c-0.1,0-0.1,0-0.1-0.1l-0.5-0.6c-0.1,0.5-0.2,1-0.4,1.4c-0.2,0.4-0.5,0.8-0.9,1c-0.3,0.2-0.7,0.4-1,0.5
				c-0.3,0.1-0.7,0.1-1,0.1c-0.3,0-0.6-0.1-0.9-0.3s-0.5-0.4-0.8-0.7c-0.3-0.4-0.4-0.7-0.5-1.1s0-0.7,0.2-1.1
				c0.2-0.4,0.4-0.7,0.7-1.1c0.3-0.4,0.8-0.7,1.3-1.1l0.9-0.6l-0.4-0.5c-0.2-0.2-0.4-0.4-0.5-0.6c-0.2-0.2-0.4-0.3-0.6-0.3
				s-0.4,0-0.7,0s-0.5,0.2-0.8,0.4c-0.3,0.2-0.5,0.4-0.7,0.7c-0.2,0.2-0.3,0.5-0.4,0.7c-0.1,0.2-0.2,0.4-0.3,0.5
				c-0.1,0.2-0.1,0.2-0.2,0.3c0,0-0.1,0-0.1,0c0,0-0.1,0-0.1,0c0,0-0.1-0.1-0.2-0.1c-0.1-0.1-0.1-0.1-0.2-0.2
				c-0.1-0.1-0.1-0.2-0.2-0.3c0-0.1,0-0.2,0-0.3c0-0.1,0.1-0.3,0.2-0.5s0.2-0.4,0.4-0.6s0.3-0.4,0.5-0.7c0.2-0.2,0.4-0.4,0.7-0.6
				c0.5-0.3,0.9-0.6,1.3-0.7c0.4-0.1,0.8-0.2,1.1-0.1c0.3,0.1,0.7,0.2,1,0.4c0.3,0.2,0.6,0.6,0.9,1L457.9,298.3z M454.6,296.2
				l-1,0.7c-0.3,0.2-0.6,0.5-0.8,0.7s-0.3,0.4-0.4,0.7c-0.1,0.2-0.1,0.4-0.1,0.6c0,0.2,0.1,0.4,0.3,0.6c0.2,0.3,0.5,0.5,0.9,0.6
				c0.4,0,0.7-0.1,1.1-0.3c0.3-0.2,0.5-0.5,0.7-0.9c0.2-0.3,0.3-0.8,0.3-1.3L454.6,296.2z"/>
		</g>
		<g>
			<path d="M462.8,292.1c0.2,0.3,0.4,0.7,0.4,1c0.1,0.3,0,0.7-0.1,1c-0.1,0.3-0.3,0.7-0.5,1c-0.2,0.3-0.6,0.6-0.9,0.9
				c-0.2,0.2-0.5,0.3-0.7,0.4c-0.2,0.1-0.5,0.2-0.7,0.3c-0.2,0.1-0.4,0.1-0.5,0.1c-0.2,0-0.3,0-0.4,0c-0.1,0-0.2,0-0.3-0.1
				c-0.1-0.1-0.2-0.2-0.3-0.3c-0.1-0.1-0.1-0.2-0.2-0.2c0-0.1-0.1-0.1-0.1-0.2c0,0,0-0.1,0-0.1c0,0,0-0.1,0.1-0.1
				c0.1,0,0.2-0.1,0.3-0.1c0.1,0,0.3,0,0.5-0.1c0.2,0,0.4-0.1,0.7-0.2c0.3-0.1,0.5-0.2,0.8-0.4c0.2-0.1,0.4-0.3,0.5-0.5
				c0.1-0.2,0.2-0.3,0.3-0.5c0.1-0.2,0.1-0.3,0-0.5c0-0.2-0.1-0.3-0.2-0.5c-0.1-0.2-0.3-0.3-0.5-0.4c-0.2-0.1-0.4-0.1-0.6-0.1
				c-0.2,0-0.5,0.1-0.7,0.1c-0.2,0.1-0.5,0.1-0.8,0.2c-0.3,0.1-0.5,0.1-0.8,0.1c-0.3,0-0.5,0-0.8,0c-0.3,0-0.5-0.1-0.7-0.3
				c-0.2-0.1-0.5-0.4-0.7-0.6c-0.2-0.3-0.3-0.5-0.4-0.8c-0.1-0.3-0.1-0.6,0-0.9c0.1-0.3,0.2-0.6,0.4-0.9c0.2-0.3,0.5-0.6,0.9-0.9
				c0.2-0.1,0.4-0.2,0.5-0.3c0.2-0.1,0.4-0.2,0.5-0.2c0.2-0.1,0.3-0.1,0.5-0.1c0.1,0,0.2,0,0.3,0c0.1,0,0.1,0,0.2,0
				c0,0,0.1,0,0.1,0.1c0,0,0.1,0.1,0.1,0.1c0,0,0.1,0.1,0.1,0.2c0.1,0.1,0.1,0.2,0.1,0.2c0,0.1,0.1,0.1,0.1,0.2c0,0.1,0,0.1,0,0.1
				c0,0,0,0.1-0.1,0.1c0,0-0.1,0-0.2,0.1c-0.1,0-0.3,0-0.4,0.1c-0.2,0-0.4,0.1-0.6,0.2c-0.2,0.1-0.4,0.2-0.7,0.3
				c-0.2,0.1-0.4,0.3-0.5,0.4c-0.1,0.2-0.2,0.3-0.2,0.5c0,0.2,0,0.3,0,0.5c0,0.2,0.1,0.3,0.2,0.4c0.1,0.2,0.3,0.3,0.5,0.4
				c0.2,0.1,0.4,0.1,0.6,0.1s0.5-0.1,0.7-0.1s0.5-0.1,0.8-0.2c0.3-0.1,0.5-0.1,0.8-0.2c0.3,0,0.5,0,0.8,0s0.5,0.1,0.7,0.3
				S462.6,291.8,462.8,292.1z"/>
		</g>
		<g>
			<path d="M460.9,283.1c0.2,0.3,0.3,0.5,0.2,0.7c0,0.2-0.2,0.4-0.5,0.6c-0.3,0.2-0.5,0.3-0.7,0.3c-0.2,0-0.4-0.2-0.5-0.4
				c-0.2-0.3-0.3-0.5-0.2-0.7c0-0.2,0.2-0.4,0.5-0.6c0.3-0.2,0.5-0.3,0.7-0.3C460.6,282.7,460.7,282.8,460.9,283.1z M466.9,291.8
				c0,0,0,0.1,0,0.1c0,0,0,0.1,0,0.1c0,0-0.1,0.1-0.1,0.2c-0.1,0.1-0.2,0.1-0.3,0.2c-0.1,0.1-0.2,0.1-0.3,0.2
				c-0.1,0-0.2,0.1-0.2,0.1c-0.1,0-0.1,0-0.1,0c0,0-0.1,0-0.1-0.1l-4.6-6.4c0,0,0-0.1,0-0.1c0,0,0-0.1,0-0.1c0-0.1,0.1-0.1,0.2-0.2
				c0.1-0.1,0.2-0.1,0.3-0.2c0.1-0.1,0.2-0.2,0.3-0.2s0.2-0.1,0.2-0.1c0.1,0,0.1,0,0.1,0c0,0,0.1,0,0.1,0.1L466.9,291.8z"/>
		</g>
		<g>
			<path d="M474.7,286.3c0,0,0,0.1,0,0.1c0,0,0,0.1,0,0.1c0,0-0.1,0.1-0.1,0.2c-0.1,0.1-0.2,0.1-0.3,0.2c-0.1,0.1-0.2,0.2-0.3,0.2
				c-0.1,0-0.2,0.1-0.2,0.1c-0.1,0-0.1,0-0.1,0c0,0-0.1,0-0.1-0.1l-2.7-3.8c-0.3-0.4-0.5-0.6-0.7-0.8c-0.2-0.2-0.4-0.3-0.7-0.4
				s-0.5-0.1-0.7-0.1c-0.2,0-0.5,0.1-0.7,0.3c-0.3,0.2-0.5,0.5-0.7,0.9s-0.2,1-0.3,1.6l3.2,4.5c0,0,0,0.1,0,0.1c0,0,0,0.1,0,0.1
				s-0.1,0.1-0.1,0.2c-0.1,0.1-0.2,0.1-0.3,0.2c-0.1,0.1-0.2,0.1-0.3,0.2s-0.2,0.1-0.2,0.1c-0.1,0-0.1,0-0.1,0c0,0-0.1,0-0.1-0.1
				l-4.6-6.4c0,0,0-0.1,0-0.1c0,0,0-0.1,0-0.1c0-0.1,0.1-0.1,0.1-0.2c0.1-0.1,0.1-0.1,0.3-0.2c0.1-0.1,0.2-0.1,0.3-0.2
				s0.1-0.1,0.2-0.1c0.1,0,0.1,0,0.1,0s0.1,0,0.1,0.1l0.6,0.9c0.1-0.7,0.2-1.2,0.4-1.7c0.2-0.4,0.5-0.8,0.9-1.1
				c0.4-0.3,0.8-0.5,1.2-0.6c0.4-0.1,0.8,0,1.1,0.1s0.7,0.3,1,0.6c0.3,0.3,0.6,0.6,1,1.1L474.7,286.3z"/>
		</g>
	</g>
	<g>
		<g>
			<path d="M207,463.6c0,0.5-0.1,1-0.2,1.4c-0.1,0.4-0.3,0.8-0.5,1.1c-0.2,0.3-0.5,0.5-0.8,0.7s-0.7,0.2-1.1,0.2
				c-0.2,0-0.4,0-0.5-0.1c-0.2,0-0.3-0.1-0.5-0.2s-0.3-0.2-0.5-0.3s-0.3-0.3-0.5-0.5v0.8c0,0,0,0.1,0,0.1s0,0-0.1,0.1
				c0,0-0.1,0-0.2,0c-0.1,0-0.1,0-0.2,0c-0.1,0-0.2,0-0.2,0s-0.1,0-0.2,0c0,0-0.1,0-0.1-0.1s0-0.1,0-0.1v-9.1c0,0,0-0.1,0-0.1
				c0,0,0-0.1,0.1-0.1c0,0,0.1,0,0.2,0s0.2,0,0.3,0c0.1,0,0.2,0,0.3,0s0.1,0,0.2,0s0.1,0,0.1,0.1s0,0.1,0,0.1v3.7
				c0.2-0.2,0.4-0.3,0.5-0.5c0.2-0.1,0.3-0.2,0.5-0.3c0.2-0.1,0.3-0.1,0.5-0.2s0.3-0.1,0.5-0.1c0.4,0,0.8,0.1,1.1,0.3
				c0.3,0.2,0.6,0.4,0.8,0.7c0.2,0.3,0.3,0.6,0.4,1S207,463.1,207,463.6z M205.9,463.7c0-0.3,0-0.6-0.1-0.9s-0.1-0.6-0.3-0.8
				s-0.3-0.4-0.5-0.6c-0.2-0.1-0.4-0.2-0.7-0.2c-0.1,0-0.3,0-0.4,0.1c-0.1,0-0.3,0.1-0.4,0.2s-0.3,0.2-0.5,0.4s-0.3,0.3-0.5,0.6v2.5
				c0.3,0.4,0.6,0.7,0.9,0.9c0.3,0.2,0.6,0.3,0.9,0.3c0.3,0,0.5-0.1,0.7-0.2c0.2-0.1,0.4-0.3,0.5-0.5c0.1-0.2,0.2-0.5,0.3-0.8
				C205.8,464.3,205.9,464,205.9,463.7z"/>
		</g>
		<g>
			<path d="M213.4,466.7c0,0.1,0,0.1-0.1,0.1s-0.1,0-0.2,0.1s-0.2,0-0.3,0c-0.1,0-0.2,0-0.3,0c-0.1,0-0.1,0-0.2-0.1s0-0.1,0-0.1
				v-0.6c-0.3,0.3-0.6,0.5-0.9,0.7c-0.3,0.2-0.7,0.2-1,0.2c-0.3,0-0.6,0-0.9-0.1c-0.3-0.1-0.5-0.2-0.7-0.4c-0.2-0.2-0.3-0.4-0.4-0.6
				c-0.1-0.2-0.2-0.5-0.2-0.8c0-0.3,0.1-0.6,0.2-0.9s0.3-0.5,0.6-0.6s0.6-0.3,1-0.4c0.4-0.1,0.8-0.1,1.3-0.1h0.8v-0.5
				c0-0.2,0-0.4-0.1-0.6s-0.1-0.3-0.2-0.5c-0.1-0.1-0.3-0.2-0.4-0.3c-0.2-0.1-0.4-0.1-0.7-0.1c-0.3,0-0.5,0-0.7,0.1
				c-0.2,0.1-0.4,0.1-0.6,0.2c-0.2,0.1-0.3,0.2-0.4,0.2c-0.1,0.1-0.2,0.1-0.2,0.1c0,0-0.1,0-0.1,0s-0.1,0-0.1-0.1c0,0,0-0.1,0-0.1
				c0-0.1,0-0.1,0-0.2c0-0.1,0-0.2,0-0.3c0-0.1,0.1-0.1,0.1-0.2c0.1-0.1,0.2-0.1,0.3-0.2c0.2-0.1,0.3-0.2,0.5-0.2
				c0.2-0.1,0.4-0.1,0.6-0.2c0.2,0,0.5-0.1,0.7-0.1c0.4,0,0.8,0,1.1,0.2s0.6,0.2,0.8,0.4c0.2,0.2,0.3,0.4,0.4,0.7s0.1,0.6,0.1,1
				V466.7z M212.3,463.9h-1c-0.3,0-0.6,0-0.8,0.1c-0.2,0.1-0.4,0.1-0.6,0.2c-0.2,0.1-0.3,0.2-0.3,0.4c-0.1,0.1-0.1,0.3-0.1,0.5
				c0,0.3,0.1,0.6,0.3,0.8c0.2,0.2,0.5,0.3,0.9,0.3c0.3,0,0.6-0.1,0.8-0.2c0.3-0.2,0.5-0.4,0.8-0.7V463.9z"/>
		</g>
		<g>
			<path d="M219.3,465.1c0,0.3-0.1,0.6-0.2,0.8c-0.1,0.2-0.3,0.5-0.5,0.6s-0.5,0.3-0.8,0.4s-0.6,0.1-1,0.1c-0.2,0-0.4,0-0.6-0.1
				c-0.2,0-0.4-0.1-0.5-0.1c-0.2-0.1-0.3-0.1-0.4-0.2c-0.1-0.1-0.2-0.1-0.2-0.2s-0.1-0.1-0.1-0.2s0-0.2,0-0.3c0-0.1,0-0.2,0-0.2
				s0-0.1,0-0.1s0-0.1,0.1-0.1c0,0,0.1,0,0.1,0c0,0,0.1,0,0.2,0.1c0.1,0.1,0.2,0.1,0.4,0.2c0.1,0.1,0.3,0.1,0.5,0.2
				c0.2,0.1,0.4,0.1,0.7,0.1c0.2,0,0.4,0,0.5-0.1s0.3-0.1,0.4-0.2c0.1-0.1,0.2-0.2,0.3-0.3c0.1-0.1,0.1-0.3,0.1-0.4
				c0-0.2,0-0.3-0.1-0.4c-0.1-0.1-0.2-0.2-0.4-0.3s-0.3-0.2-0.5-0.2c-0.2-0.1-0.4-0.1-0.6-0.2c-0.2-0.1-0.4-0.2-0.6-0.3
				c-0.2-0.1-0.4-0.2-0.5-0.4s-0.3-0.3-0.4-0.5c-0.1-0.2-0.1-0.4-0.1-0.7c0-0.2,0-0.5,0.1-0.7c0.1-0.2,0.2-0.4,0.4-0.6
				c0.2-0.2,0.4-0.3,0.7-0.4c0.3-0.1,0.6-0.2,1-0.2c0.2,0,0.3,0,0.5,0s0.3,0.1,0.4,0.1s0.2,0.1,0.3,0.1c0.1,0,0.2,0.1,0.2,0.1
				c0,0,0.1,0.1,0.1,0.1c0,0,0,0.1,0,0.1c0,0,0,0.1,0,0.1c0,0.1,0,0.1,0,0.2c0,0.1,0,0.1,0,0.2c0,0.1,0,0.1,0,0.1c0,0,0,0.1-0.1,0.1
				c0,0,0,0-0.1,0c0,0-0.1,0-0.2-0.1s-0.2-0.1-0.3-0.2c-0.1-0.1-0.3-0.1-0.4-0.2c-0.2-0.1-0.4-0.1-0.6-0.1c-0.2,0-0.4,0-0.5,0.1
				c-0.1,0-0.3,0.1-0.4,0.2c-0.1,0.1-0.2,0.2-0.2,0.3c0,0.1-0.1,0.2-0.1,0.4c0,0.2,0,0.3,0.1,0.4c0.1,0.1,0.2,0.2,0.4,0.3
				s0.3,0.2,0.5,0.2s0.4,0.1,0.6,0.2c0.2,0.1,0.4,0.2,0.6,0.3c0.2,0.1,0.4,0.2,0.5,0.3s0.3,0.3,0.4,0.5
				C219.3,464.6,219.3,464.8,219.3,465.1z"/>
		</g>
		<g>
			<path d="M222.2,458.5c0,0.3,0,0.4-0.2,0.5s-0.3,0.1-0.6,0.1c-0.3,0-0.4,0-0.5-0.1c-0.1-0.1-0.1-0.3-0.1-0.5c0-0.3,0-0.4,0.2-0.5
				s0.3-0.1,0.6-0.1c0.3,0,0.4,0,0.5,0.1C222.1,458.1,222.2,458.2,222.2,458.5z M222,466.7C222,466.8,222,466.8,222,466.7
				c0,0.1-0.1,0.1-0.1,0.2s-0.1,0-0.2,0s-0.2,0-0.3,0c-0.1,0-0.2,0-0.3,0s-0.1,0-0.2,0c0,0-0.1,0-0.1-0.1c0,0,0-0.1,0-0.1v-6.2
				c0,0,0-0.1,0-0.1c0,0,0,0,0.1-0.1c0,0,0.1,0,0.2,0s0.2,0,0.3,0c0.1,0,0.2,0,0.3,0s0.1,0,0.2,0s0.1,0,0.1,0.1s0,0.1,0,0.1V466.7z"
				/>
		</g>
		<g>
			<path d="M229.4,466.7C229.4,466.8,229.4,466.8,229.4,466.7c0,0.1-0.1,0.1-0.1,0.2s-0.1,0-0.2,0s-0.2,0-0.3,0c-0.1,0-0.2,0-0.3,0
				s-0.1,0-0.2,0s-0.1,0-0.1-0.1c0,0,0-0.1,0-0.1v-3.6c0-0.4,0-0.6-0.1-0.8s-0.1-0.4-0.2-0.6s-0.2-0.3-0.4-0.4
				c-0.2-0.1-0.4-0.1-0.6-0.1c-0.3,0-0.6,0.1-0.8,0.3s-0.6,0.5-0.9,0.9v4.3c0,0,0,0.1,0,0.1c0,0,0,0-0.1,0.1s-0.1,0-0.2,0
				s-0.2,0-0.3,0c-0.1,0-0.2,0-0.3,0s-0.1,0-0.2,0c0,0-0.1,0-0.1-0.1c0,0,0-0.1,0-0.1v-6.2c0,0,0-0.1,0-0.1c0,0,0,0,0.1-0.1
				c0,0,0.1,0,0.2,0c0.1,0,0.1,0,0.3,0c0.1,0,0.2,0,0.3,0c0.1,0,0.1,0,0.2,0c0,0,0.1,0,0.1,0.1c0,0,0,0.1,0,0.1v0.8
				c0.3-0.4,0.7-0.7,1-0.9c0.3-0.2,0.7-0.3,1-0.3c0.4,0,0.8,0.1,1,0.2c0.3,0.1,0.5,0.3,0.7,0.6s0.3,0.5,0.4,0.8
				c0.1,0.3,0.1,0.7,0.1,1.1V466.7z"/>
		</g>
		<g>
			<path d="M238.5,465.1c0,0.3-0.1,0.6-0.2,0.8c-0.1,0.2-0.3,0.5-0.5,0.6s-0.5,0.3-0.8,0.4s-0.6,0.1-1,0.1c-0.2,0-0.4,0-0.6-0.1
				c-0.2,0-0.4-0.1-0.5-0.1c-0.2-0.1-0.3-0.1-0.4-0.2c-0.1-0.1-0.2-0.1-0.2-0.2s-0.1-0.1-0.1-0.2s0-0.2,0-0.3c0-0.1,0-0.2,0-0.2
				s0-0.1,0-0.1s0-0.1,0.1-0.1c0,0,0.1,0,0.1,0c0,0,0.1,0,0.2,0.1c0.1,0.1,0.2,0.1,0.4,0.2c0.1,0.1,0.3,0.1,0.5,0.2
				c0.2,0.1,0.4,0.1,0.7,0.1c0.2,0,0.4,0,0.5-0.1s0.3-0.1,0.4-0.2c0.1-0.1,0.2-0.2,0.3-0.3c0.1-0.1,0.1-0.3,0.1-0.4
				c0-0.2,0-0.3-0.1-0.4c-0.1-0.1-0.2-0.2-0.4-0.3s-0.3-0.2-0.5-0.2c-0.2-0.1-0.4-0.1-0.6-0.2c-0.2-0.1-0.4-0.2-0.6-0.3
				c-0.2-0.1-0.4-0.2-0.5-0.4s-0.3-0.3-0.4-0.5c-0.1-0.2-0.1-0.4-0.1-0.7c0-0.2,0-0.5,0.1-0.7c0.1-0.2,0.2-0.4,0.4-0.6
				c0.2-0.2,0.4-0.3,0.7-0.4c0.3-0.1,0.6-0.2,1-0.2c0.2,0,0.3,0,0.5,0s0.3,0.1,0.4,0.1s0.2,0.1,0.3,0.1c0.1,0,0.2,0.1,0.2,0.1
				c0,0,0.1,0.1,0.1,0.1c0,0,0,0.1,0,0.1c0,0,0,0.1,0,0.1c0,0.1,0,0.1,0,0.2c0,0.1,0,0.1,0,0.2c0,0.1,0,0.1,0,0.1c0,0,0,0.1-0.1,0.1
				c0,0,0,0-0.1,0c0,0-0.1,0-0.2-0.1s-0.2-0.1-0.3-0.2c-0.1-0.1-0.3-0.1-0.4-0.2c-0.2-0.1-0.4-0.1-0.6-0.1c-0.2,0-0.4,0-0.5,0.1
				c-0.1,0-0.3,0.1-0.4,0.2c-0.1,0.1-0.2,0.2-0.2,0.3c0,0.1-0.1,0.2-0.1,0.4c0,0.2,0,0.3,0.1,0.4c0.1,0.1,0.2,0.2,0.4,0.3
				s0.3,0.2,0.5,0.2s0.4,0.1,0.6,0.2c0.2,0.1,0.4,0.2,0.6,0.3c0.2,0.1,0.4,0.2,0.5,0.3s0.3,0.3,0.4,0.5
				C238.5,464.6,238.5,464.8,238.5,465.1z"/>
		</g>
		<g>
			<path d="M241.3,466.7C241.3,466.8,241.2,466.8,241.3,466.7c0,0.1-0.1,0.1-0.1,0.2s-0.1,0-0.2,0s-0.2,0-0.3,0c-0.1,0-0.2,0-0.3,0
				s-0.1,0-0.2,0c0,0-0.1,0-0.1-0.1c0,0,0-0.1,0-0.1v-9.1c0,0,0-0.1,0-0.1c0,0,0-0.1,0.1-0.1c0,0,0.1,0,0.2,0s0.2,0,0.3,0
				c0.1,0,0.2,0,0.3,0s0.1,0,0.2,0s0.1,0,0.1,0.1s0,0.1,0,0.1V466.7z"/>
		</g>
		<g>
			<path d="M249.1,463.6c0,0.5-0.1,1-0.2,1.4c-0.1,0.4-0.3,0.8-0.6,1.1c-0.3,0.3-0.6,0.5-1,0.7c-0.4,0.2-0.9,0.3-1.4,0.3
				c-0.5,0-0.9-0.1-1.3-0.2c-0.4-0.2-0.7-0.4-0.9-0.7s-0.4-0.6-0.6-1s-0.2-0.9-0.2-1.4c0-0.5,0.1-1,0.2-1.4c0.1-0.4,0.3-0.8,0.6-1.1
				c0.3-0.3,0.6-0.5,1-0.7s0.8-0.3,1.4-0.3c0.5,0,0.9,0.1,1.3,0.2c0.4,0.2,0.7,0.4,0.9,0.7s0.4,0.6,0.6,1
				C249,462.6,249.1,463.1,249.1,463.6z M247.9,463.7c0-0.3,0-0.6-0.1-0.9c-0.1-0.3-0.2-0.6-0.3-0.8s-0.3-0.4-0.6-0.5
				c-0.2-0.1-0.5-0.2-0.9-0.2c-0.3,0-0.6,0.1-0.9,0.2s-0.4,0.3-0.6,0.5c-0.2,0.2-0.3,0.5-0.3,0.8c-0.1,0.3-0.1,0.6-0.1,1
				c0,0.3,0,0.7,0.1,1c0.1,0.3,0.2,0.6,0.3,0.8c0.1,0.2,0.3,0.4,0.6,0.5c0.2,0.1,0.5,0.2,0.9,0.2c0.3,0,0.6-0.1,0.9-0.2
				c0.2-0.1,0.4-0.3,0.6-0.5s0.3-0.5,0.3-0.8S247.9,464,247.9,463.7z"/>
		</g>
		<g>
			<path d="M256.4,463.6c0,0.5-0.1,1-0.2,1.4c-0.1,0.4-0.3,0.8-0.5,1.1c-0.2,0.3-0.5,0.5-0.8,0.7c-0.3,0.2-0.7,0.2-1.1,0.2
				c-0.2,0-0.4,0-0.5-0.1s-0.3-0.1-0.5-0.2c-0.1-0.1-0.3-0.2-0.4-0.3s-0.3-0.3-0.5-0.4v3.1c0,0,0,0.1,0,0.1s0,0-0.1,0.1
				s-0.1,0-0.2,0s-0.2,0-0.3,0c-0.1,0-0.2,0-0.3,0s-0.1,0-0.2,0c0,0-0.1,0-0.1-0.1c0,0,0-0.1,0-0.1v-8.6c0,0,0-0.1,0-0.1
				c0,0,0,0,0.1-0.1s0.1,0,0.2,0c0.1,0,0.1,0,0.2,0c0.1,0,0.2,0,0.2,0c0.1,0,0.1,0,0.2,0s0.1,0,0.1,0.1c0,0,0,0.1,0,0.1v0.8
				c0.2-0.2,0.4-0.4,0.5-0.5s0.3-0.3,0.5-0.4c0.2-0.1,0.4-0.2,0.5-0.2c0.2,0,0.4-0.1,0.6-0.1c0.4,0,0.8,0.1,1.1,0.3s0.6,0.4,0.8,0.7
				c0.2,0.3,0.3,0.7,0.4,1C256.3,462.7,256.4,463.1,256.4,463.6z M255.2,463.7c0-0.3,0-0.6-0.1-0.9c0-0.3-0.1-0.6-0.2-0.8
				c-0.1-0.2-0.3-0.4-0.5-0.5s-0.4-0.2-0.7-0.2c-0.1,0-0.3,0-0.4,0.1c-0.1,0-0.3,0.1-0.4,0.2c-0.1,0.1-0.3,0.2-0.5,0.4
				c-0.2,0.2-0.3,0.3-0.5,0.6v2.4c0.3,0.4,0.6,0.7,0.9,0.9c0.3,0.2,0.6,0.3,0.9,0.3c0.3,0,0.5-0.1,0.7-0.2s0.4-0.3,0.5-0.5
				s0.2-0.5,0.3-0.8S255.2,464,255.2,463.7z"/>
		</g>
		<g>
			<path d="M263.3,463.4c0,0.2,0,0.3-0.1,0.4c-0.1,0.1-0.2,0.1-0.3,0.1h-4.1c0,0.3,0,0.6,0.1,0.9c0.1,0.3,0.2,0.5,0.3,0.7
				s0.4,0.3,0.6,0.5c0.3,0.1,0.6,0.2,0.9,0.2c0.3,0,0.6,0,0.8-0.1c0.2,0,0.4-0.1,0.6-0.2s0.3-0.1,0.4-0.2c0.1,0,0.2-0.1,0.2-0.1
				c0,0,0.1,0,0.1,0c0,0,0,0,0.1,0.1s0,0.1,0,0.1c0,0.1,0,0.1,0,0.2c0,0.1,0,0.1,0,0.2c0,0,0,0.1,0,0.1c0,0,0,0.1,0,0.1
				c0,0,0,0.1-0.1,0.1c0,0-0.1,0.1-0.2,0.1c-0.1,0.1-0.3,0.1-0.5,0.2s-0.4,0.1-0.7,0.1c-0.3,0-0.5,0.1-0.8,0.1
				c-0.5,0-0.9-0.1-1.3-0.2c-0.4-0.1-0.7-0.4-1-0.6s-0.5-0.6-0.6-1s-0.2-0.9-0.2-1.5c0-0.5,0.1-1,0.2-1.4c0.1-0.4,0.3-0.8,0.6-1.1
				c0.3-0.3,0.6-0.5,0.9-0.7c0.4-0.2,0.8-0.2,1.2-0.2c0.5,0,0.9,0.1,1.2,0.2c0.3,0.2,0.6,0.4,0.8,0.6c0.2,0.3,0.4,0.6,0.5,0.9
				c0.1,0.4,0.2,0.7,0.2,1.1V463.4z M262.2,463c0-0.6-0.1-1.1-0.4-1.4s-0.7-0.5-1.2-0.5c-0.3,0-0.5,0.1-0.7,0.2s-0.4,0.2-0.5,0.4
				c-0.1,0.2-0.3,0.4-0.3,0.6c-0.1,0.2-0.1,0.5-0.1,0.7H262.2z"/>
		</g>
	</g>
	<g>
		<g>
			<path d="M212.3,73.1c0.1,0.1,0.1,0.2,0.2,0.2c0,0.1,0.1,0.1,0.1,0.2c0,0.1,0,0.1,0,0.1c0,0,0,0.1-0.1,0.1l-3.4,2.5l2.3,3.1
				l3.2-2.3c0,0,0.1,0,0.1,0c0,0,0.1,0,0.1,0c0.1,0,0.1,0.1,0.2,0.1c0.1,0.1,0.1,0.1,0.2,0.2c0.1,0.1,0.1,0.2,0.2,0.2
				s0.1,0.1,0.1,0.2s0,0.1,0,0.2c0,0,0,0.1-0.1,0.1l-3.2,2.3l2.8,3.8c0,0,0,0.1,0,0.1s0,0.1,0,0.1c0,0.1-0.1,0.1-0.2,0.2
				c-0.1,0.1-0.2,0.1-0.3,0.2c-0.1,0.1-0.2,0.1-0.3,0.2c-0.1,0-0.2,0.1-0.2,0.1s-0.1,0-0.2,0c0,0-0.1,0-0.1-0.1l-6.2-8.5
				c-0.1-0.2-0.2-0.3-0.1-0.5c0-0.1,0.1-0.3,0.2-0.3l4.1-3c0,0,0.1,0,0.1,0c0,0,0.1,0,0.1,0c0.1,0,0.1,0.1,0.2,0.1
				C212.1,72.9,212.2,73,212.3,73.1z"/>
		</g>
		<g>
			<path d="M221.3,79.5c0,0,0,0.1,0,0.1s0,0.1,0,0.1c0,0-0.1,0.1-0.1,0.2c-0.1,0.1-0.2,0.1-0.3,0.2c-0.1,0.1-0.2,0.1-0.3,0.2
				c-0.1,0-0.2,0.1-0.2,0.1c-0.1,0-0.1,0-0.1,0c0,0-0.1,0-0.1-0.1l-6.9-9.5c0,0,0-0.1,0-0.1c0,0,0-0.1,0-0.1c0-0.1,0.1-0.1,0.1-0.2
				c0.1-0.1,0.2-0.1,0.3-0.2c0.1-0.1,0.2-0.2,0.3-0.2c0.1,0,0.2-0.1,0.2-0.1c0.1,0,0.1,0,0.1,0s0.1,0,0.1,0.1L221.3,79.5z"/>
		</g>
		<g>
			<path d="M227.1,70.3c0.4,0.5,0.7,1.1,0.8,1.6c0.2,0.5,0.3,1.1,0.2,1.6c0,0.5-0.2,1-0.5,1.5c-0.3,0.5-0.7,0.9-1.2,1.3
				c-0.5,0.4-1,0.6-1.5,0.8c-0.5,0.1-1,0.1-1.5,0c-0.5-0.1-0.9-0.3-1.4-0.7c-0.4-0.3-0.9-0.8-1.2-1.3c-0.4-0.5-0.7-1-0.8-1.6
				c-0.2-0.5-0.3-1.1-0.2-1.6c0-0.5,0.2-1,0.5-1.5c0.3-0.5,0.7-0.9,1.2-1.3c0.5-0.4,1-0.6,1.5-0.8c0.5-0.1,1-0.1,1.5,0
				c0.5,0.1,0.9,0.3,1.4,0.7C226.3,69.3,226.7,69.8,227.1,70.3z M225.9,71.3c-0.3-0.3-0.5-0.6-0.8-0.9c-0.3-0.3-0.6-0.5-0.9-0.6
				c-0.3-0.1-0.7-0.2-1-0.1s-0.7,0.2-1.1,0.5c-0.3,0.3-0.6,0.5-0.8,0.8s-0.2,0.6-0.2,1c0,0.3,0.1,0.7,0.2,1.1s0.4,0.7,0.6,1.1
				c0.3,0.4,0.5,0.7,0.8,0.9c0.3,0.3,0.6,0.5,0.9,0.6c0.3,0.1,0.7,0.2,1,0.1c0.4,0,0.7-0.2,1.1-0.5c0.3-0.3,0.6-0.5,0.8-0.8
				c0.2-0.3,0.2-0.6,0.2-1c0-0.3-0.1-0.7-0.2-1.1C226.4,72,226.2,71.6,225.9,71.3z"/>
		</g>
		<g>
			<path d="M234.7,64.7c0.4,0.5,0.7,1.1,0.8,1.6c0.2,0.5,0.3,1.1,0.2,1.6c0,0.5-0.2,1-0.5,1.5c-0.3,0.5-0.7,0.9-1.2,1.3
				c-0.5,0.4-1,0.6-1.5,0.8c-0.5,0.1-1,0.1-1.5,0c-0.5-0.1-0.9-0.3-1.4-0.7c-0.4-0.3-0.9-0.8-1.2-1.3c-0.4-0.5-0.7-1-0.8-1.6
				c-0.2-0.5-0.3-1.1-0.2-1.6c0-0.5,0.2-1,0.5-1.5c0.3-0.5,0.7-0.9,1.2-1.3c0.5-0.4,1-0.6,1.5-0.8c0.5-0.1,1-0.1,1.5,0
				c0.5,0.1,0.9,0.3,1.4,0.7C233.9,63.7,234.3,64.2,234.7,64.7z M233.6,65.7c-0.3-0.3-0.5-0.6-0.8-0.9c-0.3-0.3-0.6-0.5-0.9-0.6
				c-0.3-0.1-0.7-0.2-1-0.1c-0.4,0-0.7,0.2-1.1,0.5c-0.3,0.3-0.6,0.5-0.8,0.8c-0.2,0.3-0.2,0.6-0.2,1c0,0.3,0.1,0.7,0.2,1.1
				c0.1,0.4,0.4,0.7,0.6,1.1c0.3,0.4,0.5,0.7,0.8,0.9c0.3,0.3,0.6,0.5,0.9,0.6c0.3,0.1,0.7,0.2,1,0.1c0.4,0,0.7-0.2,1.1-0.5
				c0.3-0.3,0.6-0.5,0.8-0.8c0.2-0.3,0.2-0.6,0.2-1c0-0.3-0.1-0.7-0.2-1.1C234.1,66.4,233.8,66,233.6,65.7z"/>
		</g>
		<g>
			<path d="M244.3,62.7c0,0,0,0.1,0,0.1c0,0,0,0.1,0,0.1c0,0-0.1,0.1-0.1,0.2c-0.1,0.1-0.1,0.1-0.2,0.2c-0.1,0.1-0.2,0.1-0.3,0.2
				c-0.1,0-0.1,0.1-0.2,0.1s-0.1,0-0.1,0s-0.1,0-0.1-0.1l-0.6-0.8c-0.1,0.6-0.2,1.1-0.4,1.6c-0.2,0.5-0.5,0.9-1,1.2
				c-0.5,0.3-0.9,0.5-1.4,0.6c-0.5,0.1-0.9,0-1.3-0.2c-0.4-0.2-0.8-0.4-1.2-0.8c-0.4-0.4-0.8-0.8-1.1-1.2c-0.4-0.5-0.7-1.1-0.9-1.6
				c-0.2-0.5-0.3-1-0.3-1.5s0.1-0.9,0.3-1.4c0.2-0.4,0.6-0.8,1-1.1c0.4-0.3,0.8-0.4,1.2-0.5c0.4-0.1,0.9,0,1.4,0l-2.7-3.7
				c0,0,0-0.1,0-0.1c0,0,0-0.1,0-0.1c0-0.1,0.1-0.1,0.1-0.2c0.1-0.1,0.2-0.1,0.3-0.2c0.1-0.1,0.2-0.2,0.3-0.2c0.1,0,0.2-0.1,0.2-0.1
				c0.1,0,0.1,0,0.1,0c0,0,0.1,0,0.1,0.1L244.3,62.7z M239.9,59.1c-0.6-0.2-1.1-0.2-1.6-0.2c-0.4,0-0.8,0.1-1.2,0.4
				c-0.3,0.2-0.5,0.5-0.6,0.8c-0.1,0.3-0.1,0.6-0.1,0.9c0,0.3,0.1,0.7,0.3,1c0.2,0.3,0.3,0.7,0.6,1c0.2,0.3,0.5,0.6,0.8,0.9
				c0.3,0.3,0.6,0.5,0.9,0.6c0.3,0.1,0.6,0.2,0.9,0.2c0.3,0,0.6-0.1,0.9-0.3c0.2-0.1,0.3-0.2,0.4-0.4c0.1-0.1,0.2-0.3,0.3-0.5
				c0.1-0.2,0.1-0.5,0.2-0.7c0.1-0.3,0.1-0.6,0.1-1L239.9,59.1z"/>
		</g>
		<g>
			<path d="M250,53.6c0.4,0.6,0.7,1.1,0.9,1.6c0.2,0.5,0.3,1,0.3,1.5c0,0.5-0.1,0.9-0.3,1.4c-0.2,0.4-0.6,0.8-1,1.1
				c-0.2,0.1-0.4,0.2-0.6,0.3c-0.2,0.1-0.4,0.1-0.6,0.2c-0.2,0-0.4,0-0.7,0c-0.2,0-0.5,0-0.8-0.1l2.3,3.2c0,0,0,0.1,0,0.1
				c0,0,0,0.1,0,0.1c0,0.1-0.1,0.1-0.1,0.2s-0.2,0.1-0.3,0.2c-0.1,0.1-0.2,0.1-0.3,0.2c-0.1,0-0.2,0.1-0.2,0.1c-0.1,0-0.1,0-0.1,0
				c0,0-0.1,0-0.1-0.1l-6.5-8.9c0,0,0-0.1-0.1-0.1c0,0,0-0.1,0-0.1c0,0,0.1-0.1,0.1-0.2c0.1-0.1,0.1-0.1,0.2-0.2
				c0.1-0.1,0.2-0.1,0.3-0.2c0.1,0,0.1-0.1,0.2-0.1c0.1,0,0.1,0,0.1,0c0,0,0.1,0,0.1,0.1l0.6,0.9c0-0.3,0.1-0.6,0.2-0.9
				c0.1-0.3,0.2-0.5,0.3-0.8c0.1-0.2,0.2-0.4,0.4-0.6c0.2-0.2,0.3-0.4,0.6-0.5c0.5-0.3,0.9-0.5,1.4-0.6c0.5-0.1,0.9,0,1.3,0.2
				c0.4,0.2,0.8,0.4,1.2,0.8C249.2,52.7,249.6,53.1,250,53.6z M248.8,54.6c-0.2-0.3-0.5-0.6-0.8-0.9c-0.3-0.3-0.6-0.5-0.8-0.6
				c-0.3-0.1-0.6-0.2-0.9-0.2c-0.3,0-0.6,0.1-0.9,0.3c-0.2,0.1-0.3,0.2-0.4,0.4c-0.1,0.2-0.2,0.3-0.3,0.5c-0.1,0.2-0.1,0.5-0.2,0.7
				c-0.1,0.3-0.1,0.6-0.1,1l1.9,2.5c0.6,0.2,1.1,0.2,1.6,0.2c0.4,0,0.8-0.1,1.1-0.4c0.3-0.2,0.5-0.5,0.6-0.8
				c0.1-0.3,0.1-0.6,0.1-0.9c0-0.3-0.1-0.7-0.3-1S249.1,54.9,248.8,54.6z"/>
		</g>
		<g>
			<path d="M255.3,54.7c0,0,0,0.1,0,0.1c0,0,0,0.1,0,0.1c0,0-0.1,0.1-0.1,0.2c-0.1,0.1-0.2,0.1-0.3,0.2c-0.1,0.1-0.2,0.1-0.3,0.2
				s-0.2,0.1-0.2,0.1c-0.1,0-0.1,0-0.1,0c0,0-0.1,0-0.1-0.1l-6.9-9.5c0,0,0-0.1,0-0.1s0-0.1,0-0.1c0-0.1,0.1-0.1,0.1-0.2
				s0.2-0.1,0.3-0.2c0.1-0.1,0.2-0.2,0.3-0.2c0.1,0,0.2-0.1,0.2-0.1c0.1,0,0.1,0,0.1,0c0,0,0.1,0,0.1,0.1L255.3,54.7z"/>
		</g>
		<g>
			<path d="M262.3,49.6c0,0.1,0.1,0.1,0,0.2c0,0.1-0.1,0.1-0.1,0.2c-0.1,0.1-0.1,0.1-0.3,0.2c-0.1,0.1-0.2,0.2-0.3,0.2
				s-0.2,0.1-0.2,0.1c-0.1,0-0.1,0-0.1-0.1l-0.5-0.6c-0.1,0.5-0.2,1-0.4,1.4c-0.2,0.4-0.5,0.8-0.9,1c-0.3,0.2-0.7,0.4-1,0.5
				c-0.3,0.1-0.7,0.2-1,0.1c-0.3,0-0.6-0.1-0.9-0.3c-0.3-0.2-0.5-0.4-0.8-0.7c-0.3-0.4-0.4-0.7-0.5-1.1c0-0.4,0-0.7,0.2-1.1
				c0.1-0.4,0.4-0.8,0.7-1.1c0.3-0.4,0.7-0.7,1.2-1.1l0.9-0.6l-0.4-0.5c-0.2-0.2-0.4-0.4-0.6-0.6c-0.2-0.2-0.4-0.2-0.6-0.3
				c-0.2,0-0.4,0-0.7,0c-0.2,0.1-0.5,0.2-0.8,0.4c-0.3,0.2-0.5,0.4-0.7,0.7c-0.2,0.2-0.3,0.5-0.4,0.7c-0.1,0.2-0.2,0.4-0.3,0.5
				c-0.1,0.2-0.1,0.3-0.2,0.3c0,0-0.1,0-0.1,0c0,0-0.1,0-0.1,0c0,0-0.1-0.1-0.2-0.1s-0.1-0.1-0.2-0.2c-0.1-0.1-0.1-0.2-0.2-0.3
				c0-0.1,0-0.2,0-0.3c0-0.1,0.1-0.3,0.2-0.5s0.2-0.4,0.4-0.6c0.2-0.2,0.3-0.4,0.5-0.7c0.2-0.2,0.4-0.4,0.7-0.6
				c0.5-0.3,0.9-0.6,1.3-0.7c0.4-0.1,0.8-0.2,1.1-0.1c0.3,0.1,0.7,0.2,1,0.4c0.3,0.2,0.6,0.5,0.9,0.9L262.3,49.6z M259,47.6l-1,0.7
				c-0.3,0.2-0.6,0.5-0.8,0.7c-0.2,0.2-0.3,0.5-0.4,0.7c-0.1,0.2-0.1,0.4-0.1,0.6c0,0.2,0.1,0.4,0.3,0.6c0.2,0.3,0.5,0.5,0.9,0.6
				c0.4,0,0.7-0.1,1.1-0.4c0.3-0.2,0.5-0.5,0.7-0.9c0.2-0.3,0.3-0.8,0.3-1.3L259,47.6z"/>
		</g>
		<g>
			<path d="M259.5,38.5c0.2,0.3,0.3,0.5,0.3,0.7c0,0.2-0.2,0.4-0.5,0.6c-0.3,0.2-0.5,0.3-0.7,0.3c-0.2,0-0.4-0.2-0.6-0.4
				c-0.2-0.3-0.3-0.5-0.3-0.7c0-0.2,0.2-0.4,0.5-0.6c0.3-0.2,0.5-0.3,0.7-0.3C259.1,38.1,259.3,38.3,259.5,38.5z M265.6,47.2
				c0,0,0,0.1,0,0.1s0,0.1,0,0.1s-0.1,0.1-0.1,0.2c-0.1,0.1-0.2,0.1-0.3,0.2c-0.1,0.1-0.2,0.1-0.3,0.2c-0.1,0-0.2,0.1-0.2,0.1
				c-0.1,0-0.1,0-0.1,0s-0.1,0-0.1-0.1l-4.7-6.4c0,0,0-0.1,0-0.1s0-0.1,0-0.1c0-0.1,0.1-0.1,0.1-0.2c0.1-0.1,0.2-0.1,0.3-0.2
				c0.1-0.1,0.2-0.2,0.3-0.2c0.1,0,0.2-0.1,0.2-0.1s0.1,0,0.1,0c0,0,0.1,0,0.1,0.1L265.6,47.2z"/>
		</g>
		<g>
			<path d="M273.3,41.6c0,0,0,0.1,0,0.1s0,0.1,0,0.1c0,0-0.1,0.1-0.1,0.2c-0.1,0.1-0.2,0.1-0.3,0.2c-0.1,0.1-0.2,0.2-0.3,0.2
				c-0.1,0-0.2,0.1-0.2,0.1s-0.1,0-0.1,0c0,0-0.1,0-0.1-0.1l-2.7-3.7c-0.3-0.4-0.5-0.6-0.7-0.8c-0.2-0.2-0.4-0.3-0.7-0.4
				c-0.2-0.1-0.5-0.1-0.7-0.1s-0.5,0.1-0.7,0.3c-0.3,0.2-0.5,0.5-0.7,1c-0.1,0.4-0.2,1-0.3,1.6l3.3,4.5c0,0,0,0.1,0,0.1
				c0,0,0,0.1,0,0.1c0,0-0.1,0.1-0.1,0.2c-0.1,0.1-0.2,0.1-0.3,0.2c-0.1,0.1-0.2,0.1-0.3,0.2c-0.1,0-0.2,0.1-0.2,0.1
				c-0.1,0-0.1,0-0.1,0c0,0-0.1,0-0.1-0.1l-4.7-6.4c0,0,0-0.1,0-0.1c0,0,0-0.1,0-0.1c0-0.1,0.1-0.1,0.1-0.2c0.1-0.1,0.1-0.1,0.3-0.2
				c0.1-0.1,0.2-0.1,0.3-0.2c0.1,0,0.1-0.1,0.2-0.1s0.1,0,0.1,0s0.1,0,0.1,0.1l0.6,0.8c0.1-0.7,0.2-1.2,0.4-1.7
				c0.2-0.4,0.5-0.8,0.9-1.1c0.4-0.3,0.8-0.5,1.2-0.6c0.4-0.1,0.8,0,1.1,0.1c0.4,0.1,0.7,0.3,1,0.6c0.3,0.3,0.6,0.6,1,1.1
				L273.3,41.6z"/>
		</g>
	</g>
	<g>
		<g>
			<path d="M117,94.1c0.1,0.1,0.1,0.2,0.1,0.2c0,0.1,0.1,0.1,0.1,0.1c0,0,0,0.1,0,0.1c0,0,0,0.1-0.1,0.1s-0.1,0-0.1,0.1
				c-0.1,0-0.1,0-0.2,0.1c-0.1,0-0.1,0-0.2,0.1c-0.1,0-0.2,0.1-0.2,0.1c-0.1,0.1-0.2,0.1-0.2,0.2c-0.1,0.1-0.1,0.2-0.2,0.4
				c0,0.2-0.1,0.3-0.1,0.6c0,0.2,0,0.5,0,0.8l2.3,3.3c0,0,0,0.1,0,0.1c0,0,0,0.1,0,0.1c0,0-0.1,0.1-0.1,0.1c-0.1,0-0.1,0.1-0.2,0.2
				c-0.1,0.1-0.2,0.1-0.2,0.1c-0.1,0-0.1,0.1-0.2,0.1c0,0-0.1,0-0.1,0c0,0-0.1,0-0.1-0.1l-3.5-5.1c0,0,0-0.1,0-0.1c0,0,0-0.1,0-0.1
				c0,0,0.1-0.1,0.1-0.1c0,0,0.1-0.1,0.2-0.2c0.1-0.1,0.2-0.1,0.2-0.1c0.1,0,0.1,0,0.1-0.1c0,0,0.1,0,0.1,0c0,0,0,0,0.1,0.1l0.5,0.7
				c0-0.3,0-0.6,0-0.8c0-0.2,0.1-0.4,0.1-0.5s0.1-0.3,0.2-0.4c0.1-0.1,0.2-0.2,0.3-0.3c0,0,0.1-0.1,0.2-0.1c0.1,0,0.1-0.1,0.2-0.1
				c0.1,0,0.2-0.1,0.2-0.1c0.1,0,0.1,0,0.2,0c0,0,0.1,0,0.1,0c0,0,0,0,0.1,0.1c0,0,0.1,0.1,0.1,0.1C116.9,94,117,94.1,117,94.1z"/>
		</g>
		<g>
			<path d="M117.7,90.7c0.1,0.2,0.2,0.4,0.2,0.5c0,0.1-0.2,0.3-0.4,0.4c-0.2,0.1-0.4,0.2-0.5,0.2c-0.1,0-0.3-0.1-0.4-0.4
				c-0.2-0.2-0.2-0.4-0.2-0.5c0-0.1,0.2-0.3,0.4-0.4c0.2-0.1,0.4-0.2,0.5-0.2C117.4,90.3,117.6,90.4,117.7,90.7z M122.3,97.5
				C122.3,97.5,122.3,97.6,122.3,97.5c0,0.1,0,0.2,0,0.2c0,0-0.1,0.1-0.1,0.1c-0.1,0-0.1,0.1-0.2,0.2c-0.1,0.1-0.2,0.1-0.2,0.1
				c-0.1,0-0.1,0.1-0.2,0.1c0,0-0.1,0-0.1,0c0,0-0.1,0-0.1-0.1l-3.5-5.1c0,0,0-0.1,0-0.1c0,0,0-0.1,0-0.1c0,0,0.1-0.1,0.1-0.1
				c0.1,0,0.1-0.1,0.2-0.2c0.1-0.1,0.2-0.1,0.2-0.1c0.1,0,0.1-0.1,0.2-0.1c0,0,0.1,0,0.1,0c0,0,0.1,0,0.1,0.1L122.3,97.5z"/>
		</g>
		<g>
			<path d="M124.7,88.4C124.7,88.4,124.7,88.4,124.7,88.4c0,0.1,0,0.1,0.1,0.1c0,0,0,0,0,0.1c0,0,0,0.1,0,0.1l1.6,6
				c0,0.1,0,0.1,0,0.1c0,0,0,0.1-0.1,0.1c0,0-0.1,0.1-0.2,0.2c-0.1,0.1-0.2,0.1-0.3,0.2c-0.1,0.1-0.2,0.1-0.3,0.2s-0.1,0.1-0.2,0.1
				c-0.1,0-0.1,0-0.2,0c0,0-0.1,0-0.1-0.1l-5-3.6c0,0-0.1-0.1-0.1-0.1c0,0-0.1,0-0.1-0.1c0,0,0,0,0,0c0,0,0-0.1,0-0.1
				c0,0,0-0.1,0-0.1c0,0,0.1-0.1,0.1-0.1c0.1,0,0.1-0.1,0.2-0.2c0.1-0.1,0.2-0.1,0.3-0.2c0.1,0,0.1-0.1,0.2-0.1c0,0,0.1,0,0.1,0
				c0,0,0.1,0,0.1,0.1l4.3,3.2l0.1,0.1l0-0.1l-1.5-5.2c0,0,0-0.1,0-0.1c0,0,0-0.1,0-0.1c0,0,0.1-0.1,0.1-0.1c0.1,0,0.1-0.1,0.2-0.2
				c0.1-0.1,0.2-0.1,0.2-0.1c0.1,0,0.1-0.1,0.2-0.1C124.5,88.3,124.6,88.3,124.7,88.4C124.6,88.3,124.7,88.4,124.7,88.4z"/>
		</g>
		<g>
			<path d="M131.5,87.1c0.1,0.1,0.1,0.3,0.1,0.4c0,0.1-0.1,0.2-0.2,0.3l-3.3,2.3c0.2,0.3,0.4,0.5,0.6,0.7c0.2,0.2,0.4,0.3,0.7,0.4
				c0.2,0.1,0.5,0.1,0.8,0c0.3-0.1,0.6-0.2,0.9-0.4c0.2-0.2,0.4-0.3,0.6-0.5c0.2-0.2,0.3-0.3,0.4-0.5c0.1-0.1,0.2-0.3,0.2-0.4
				c0.1-0.1,0.1-0.2,0.2-0.2c0,0,0.1,0,0.1,0c0,0,0.1,0,0.1,0c0,0,0.1,0,0.1,0.1c0,0,0.1,0.1,0.1,0.2c0,0,0.1,0.1,0.1,0.1
				s0,0.1,0.1,0.1c0,0,0,0.1,0,0.1c0,0,0,0.1,0,0.1c0,0,0,0.1-0.1,0.2c-0.1,0.1-0.2,0.3-0.3,0.4c-0.1,0.2-0.3,0.3-0.5,0.5
				c-0.2,0.2-0.4,0.4-0.6,0.5c-0.4,0.3-0.8,0.5-1.2,0.6c-0.4,0.1-0.8,0.1-1.1,0c-0.4-0.1-0.7-0.3-1.1-0.5c-0.3-0.3-0.7-0.6-1-1.1
				c-0.3-0.4-0.5-0.9-0.6-1.3c-0.1-0.4-0.2-0.8-0.1-1.2c0-0.4,0.2-0.8,0.4-1.1s0.5-0.6,0.9-0.9c0.4-0.3,0.8-0.4,1.1-0.5
				c0.4-0.1,0.7-0.1,1,0c0.3,0.1,0.6,0.3,0.9,0.5c0.3,0.2,0.5,0.5,0.8,0.8L131.5,87.1z M130.4,87.5c-0.3-0.5-0.7-0.8-1.1-0.9
				c-0.4-0.1-0.9,0-1.3,0.3c-0.2,0.2-0.4,0.3-0.5,0.5c-0.1,0.2-0.2,0.4-0.2,0.6c0,0.2,0,0.5,0.1,0.7s0.2,0.5,0.3,0.7L130.4,87.5z"/>
		</g>
		<g>
			<path d="M134.6,82.1c0.1,0.1,0.1,0.2,0.1,0.2c0,0.1,0.1,0.1,0.1,0.1c0,0,0,0.1,0,0.1c0,0,0,0.1-0.1,0.1c0,0-0.1,0-0.1,0.1
				c-0.1,0-0.1,0-0.2,0.1c-0.1,0-0.1,0-0.2,0.1c-0.1,0-0.2,0.1-0.2,0.1c-0.1,0.1-0.2,0.1-0.2,0.2c-0.1,0.1-0.1,0.2-0.2,0.4
				c0,0.2-0.1,0.3-0.1,0.6c0,0.2,0,0.5,0,0.8l2.3,3.3c0,0,0,0.1,0,0.1c0,0,0,0.1,0,0.1c0,0-0.1,0.1-0.1,0.1c-0.1,0-0.1,0.1-0.2,0.2
				c-0.1,0.1-0.2,0.1-0.2,0.1c-0.1,0-0.1,0.1-0.2,0.1c0,0-0.1,0-0.1,0c0,0-0.1,0-0.1-0.1l-3.5-5.1c0,0,0-0.1,0-0.1c0,0,0-0.1,0-0.1
				c0,0,0.1-0.1,0.1-0.1c0,0,0.1-0.1,0.2-0.2c0.1-0.1,0.2-0.1,0.2-0.1s0.1,0,0.1-0.1c0,0,0.1,0,0.1,0c0,0,0.1,0,0.1,0.1l0.5,0.7
				c0-0.3,0-0.6,0.1-0.8c0-0.2,0.1-0.4,0.1-0.5c0.1-0.1,0.1-0.3,0.2-0.4c0.1-0.1,0.2-0.2,0.3-0.3c0,0,0.1-0.1,0.2-0.1
				c0.1,0,0.1-0.1,0.2-0.1c0.1,0,0.2-0.1,0.2-0.1c0.1,0,0.1,0,0.2,0s0.1,0,0.1,0c0,0,0,0,0.1,0.1c0,0,0.1,0.1,0.1,0.1
				C134.4,81.9,134.5,82,134.6,82.1z"/>
		</g>
		<g>
			<path d="M145.1,74.4c0,0,0,0.1,0.1,0.1c0,0,0,0.1,0.1,0.2l1.8,5.8c0,0,0,0.1,0,0.1c0,0,0,0.1-0.1,0.1c0,0-0.1,0.1-0.2,0.2
				c-0.1,0.1-0.2,0.1-0.3,0.2c-0.1,0.1-0.2,0.1-0.3,0.2c-0.1,0-0.2,0.1-0.2,0.1c-0.1,0-0.1,0-0.1,0s-0.1,0-0.1-0.1l-3.6-2.9l0,0
				l0,0.1l1.5,4.4c0,0,0,0.1,0,0.1c0,0,0,0.1-0.1,0.1c0,0-0.1,0.1-0.2,0.2c-0.1,0.1-0.2,0.1-0.3,0.2c-0.1,0.1-0.2,0.1-0.3,0.2
				c-0.1,0-0.1,0.1-0.2,0.1c-0.1,0-0.1,0-0.1,0c0,0-0.1,0-0.1-0.1l-4.8-3.8c-0.1,0-0.1-0.1-0.1-0.1c0,0-0.1-0.1-0.1-0.1
				c0,0,0-0.1,0-0.1c0,0,0-0.1,0-0.1c0,0,0.1-0.1,0.1-0.1c0.1,0,0.1-0.1,0.2-0.2c0.1-0.1,0.2-0.1,0.3-0.2c0.1,0,0.1-0.1,0.2-0.1
				s0.1,0,0.1,0c0,0,0.1,0,0.1,0.1l4.1,3.3l0,0l0-0.1l-1.8-4.9c0,0,0-0.1,0-0.1c0,0,0-0.1,0-0.1s0.1-0.1,0.1-0.1
				c0.1,0,0.1-0.1,0.2-0.2c0.1-0.1,0.2-0.1,0.2-0.1c0.1,0,0.1-0.1,0.2-0.1c0,0,0.1,0,0.1,0c0,0,0.1,0,0.1,0.1l4.1,3.4l0,0l0-0.1
				l-1.7-5c0,0,0-0.1,0-0.1c0,0,0-0.1,0-0.1c0,0,0.1-0.1,0.1-0.1c0.1,0,0.1-0.1,0.2-0.2c0.1-0.1,0.2-0.1,0.2-0.1s0.1-0.1,0.1-0.1
				C144.9,74.3,145,74.3,145.1,74.4C145,74.3,145,74.3,145.1,74.4z"/>
		</g>
		<g>
			<path d="M146.1,71.2c0.2,0.2,0.2,0.4,0.2,0.5c0,0.1-0.2,0.3-0.4,0.4c-0.2,0.1-0.4,0.2-0.5,0.2c-0.1,0-0.3-0.1-0.4-0.4
				c-0.2-0.2-0.2-0.4-0.2-0.5c0-0.1,0.2-0.3,0.4-0.4c0.2-0.1,0.4-0.2,0.5-0.2C145.8,70.8,145.9,70.9,146.1,71.2z M150.7,78
				C150.7,78,150.7,78.1,150.7,78c0,0.1,0,0.2,0,0.2s-0.1,0.1-0.1,0.1c-0.1,0-0.1,0.1-0.2,0.2c-0.1,0.1-0.2,0.1-0.2,0.1
				c-0.1,0-0.1,0.1-0.2,0.1c0,0-0.1,0-0.1,0c0,0-0.1,0-0.1-0.1l-3.5-5.1c0,0,0-0.1,0-0.1c0,0,0-0.1,0-0.1c0,0,0.1-0.1,0.1-0.1
				c0.1,0,0.1-0.1,0.2-0.2c0.1-0.1,0.2-0.1,0.2-0.1c0.1,0,0.1-0.1,0.2-0.1s0.1,0,0.1,0c0,0,0.1,0,0.1,0.1L150.7,78z"/>
		</g>
		<g>
			<path d="M156.7,73.8C156.7,73.9,156.7,73.9,156.7,73.8c0,0.1,0,0.2,0,0.2c0,0-0.1,0.1-0.1,0.1c0,0-0.1,0.1-0.2,0.1
				c-0.1,0.1-0.1,0.1-0.2,0.1c-0.1,0-0.1,0-0.2,0.1s-0.1,0-0.1,0c0,0-0.1,0-0.1-0.1l-0.5-0.7c-0.1,0.5-0.2,0.9-0.4,1.2
				c-0.2,0.4-0.4,0.7-0.8,0.9c-0.4,0.3-0.7,0.4-1.1,0.4c-0.4,0-0.7,0-1-0.1c-0.3-0.1-0.7-0.3-1-0.6s-0.6-0.6-0.8-1
				c-0.3-0.4-0.5-0.9-0.7-1.3c-0.1-0.4-0.2-0.8-0.2-1.2c0-0.4,0.1-0.7,0.3-1s0.4-0.6,0.8-0.8c0.3-0.2,0.6-0.3,0.9-0.4
				c0.3,0,0.7,0,1.1,0.1l-2-2.9c0,0,0-0.1,0-0.1c0,0,0-0.1,0-0.1c0,0,0.1-0.1,0.1-0.1c0.1,0,0.1-0.1,0.2-0.2
				c0.1-0.1,0.2-0.1,0.2-0.1c0.1,0,0.1-0.1,0.2-0.1c0,0,0.1,0,0.1,0c0,0,0.1,0,0.1,0.1L156.7,73.8z M153.3,70.9
				c-0.5-0.1-0.9-0.2-1.2-0.2c-0.3,0-0.6,0.1-0.9,0.3c-0.2,0.2-0.4,0.4-0.5,0.6c-0.1,0.2-0.1,0.5-0.1,0.7c0,0.3,0.1,0.5,0.2,0.8
				c0.1,0.3,0.3,0.5,0.4,0.8c0.2,0.3,0.4,0.5,0.6,0.7c0.2,0.2,0.4,0.4,0.7,0.5c0.2,0.1,0.5,0.2,0.7,0.2c0.2,0,0.5-0.1,0.7-0.2
				c0.1-0.1,0.2-0.2,0.3-0.3c0.1-0.1,0.2-0.2,0.2-0.4c0.1-0.2,0.1-0.4,0.2-0.6c0-0.2,0.1-0.5,0.1-0.8L153.3,70.9z"/>
		</g>
		<g>
			<path d="M160.8,70.5c0.1,0.1,0.1,0.2,0.2,0.3c0,0.1,0,0.1,0,0.2c0,0.1,0,0.1-0.1,0.2c0,0.1-0.1,0.1-0.2,0.2
				c-0.1,0.1-0.1,0.1-0.2,0.2c-0.1,0.1-0.2,0.1-0.2,0.2c-0.3,0.2-0.5,0.3-0.7,0.4c-0.2,0.1-0.5,0.1-0.7,0c-0.2-0.1-0.4-0.2-0.6-0.4
				c-0.2-0.2-0.4-0.4-0.6-0.7l-2-3l-0.7,0.5c-0.1,0-0.1,0-0.2,0s-0.2-0.1-0.3-0.3c0-0.1-0.1-0.1-0.1-0.2c0-0.1,0-0.1,0-0.1
				c0,0,0-0.1,0-0.1s0-0.1,0.1-0.1l0.7-0.5l-0.8-1.2c0,0,0-0.1,0-0.1c0,0,0-0.1,0-0.1s0.1-0.1,0.1-0.1c0.1,0,0.1-0.1,0.2-0.2
				c0.1-0.1,0.2-0.1,0.2-0.1c0.1,0,0.1-0.1,0.2-0.1c0,0,0.1,0,0.1,0c0,0,0.1,0,0.1,0.1l0.8,1.2l1.3-0.9c0,0,0.1,0,0.1,0
				c0,0,0.1,0,0.1,0c0,0,0.1,0.1,0.1,0.1s0.1,0.1,0.1,0.2c0.1,0.1,0.1,0.2,0.2,0.3c0,0.1,0,0.1-0.1,0.2l-1.3,0.9l1.9,2.8
				c0.2,0.3,0.5,0.6,0.7,0.7c0.2,0.1,0.5,0.1,0.7-0.1c0.1-0.1,0.2-0.1,0.2-0.2c0.1-0.1,0.1-0.1,0.1-0.2c0-0.1,0.1-0.1,0.1-0.1
				c0,0,0.1-0.1,0.1-0.1c0,0,0,0,0.1,0c0,0,0,0,0.1,0c0,0,0.1,0,0.1,0.1C160.7,70.4,160.8,70.4,160.8,70.5z"/>
		</g>
		<g>
			<path d="M166.7,67C166.7,67,166.7,67.1,166.7,67c0,0.1,0,0.2,0,0.2c0,0-0.1,0.1-0.1,0.1c-0.1,0-0.1,0.1-0.2,0.2
				c-0.1,0.1-0.2,0.1-0.2,0.1c-0.1,0-0.1,0.1-0.2,0.1c0,0-0.1,0-0.1,0c0,0-0.1,0-0.1-0.1l-2-3c-0.2-0.3-0.4-0.5-0.5-0.7
				c-0.2-0.1-0.3-0.3-0.5-0.3s-0.4-0.1-0.5-0.1c-0.2,0-0.4,0.1-0.5,0.2c-0.2,0.2-0.4,0.4-0.5,0.7c-0.1,0.3-0.2,0.7-0.2,1.2l2.4,3.5
				c0,0,0,0.1,0,0.1c0,0,0,0.1,0,0.1c0,0-0.1,0.1-0.1,0.1c-0.1,0-0.1,0.1-0.2,0.2c-0.1,0.1-0.2,0.1-0.2,0.1c-0.1,0-0.1,0.1-0.2,0.1
				c0,0-0.1,0-0.1,0c0,0-0.1,0-0.1-0.1l-5.2-7.5c0,0,0-0.1,0-0.1c0,0,0-0.1,0-0.1s0.1-0.1,0.1-0.1s0.1-0.1,0.2-0.2
				c0.1-0.1,0.2-0.1,0.2-0.1c0.1,0,0.1-0.1,0.2-0.1c0,0,0.1,0,0.1,0c0,0,0.1,0,0.1,0.1l2.1,3c0.1-0.5,0.2-0.9,0.4-1.2
				c0.2-0.3,0.4-0.6,0.7-0.8c0.3-0.2,0.7-0.4,1-0.4c0.3,0,0.6,0,0.9,0.1c0.3,0.1,0.5,0.2,0.8,0.5c0.2,0.2,0.5,0.5,0.7,0.9L166.7,67z
				"/>
		</g>
	</g>
	<g>
		<g>
			<path d="M11.6,12.8c0,0.1,0,0.2,0,0.3s0,0.1,0,0.2s0,0.1-0.1,0.1c0,0,0,0-0.1,0s-0.1,0-0.1,0c-0.1,0-0.1,0-0.2-0.1
				c-0.1,0-0.1,0-0.2-0.1s-0.2,0-0.3,0c-0.1,0-0.2,0-0.3,0.1s-0.2,0.1-0.3,0.2c-0.1,0.1-0.2,0.2-0.4,0.4s-0.3,0.4-0.4,0.6v4
				c0,0,0,0.1,0,0.1s0,0-0.1,0.1s-0.1,0-0.2,0s-0.2,0-0.3,0c-0.1,0-0.2,0-0.3,0s-0.1,0-0.2,0c0,0-0.1,0-0.1-0.1c0,0,0-0.1,0-0.1
				v-6.2c0,0,0-0.1,0-0.1s0,0,0.1-0.1s0.1,0,0.2,0s0.1,0,0.3,0c0.1,0,0.2,0,0.3,0c0.1,0,0.1,0,0.2,0s0.1,0,0.1,0.1c0,0,0,0.1,0,0.1
				v0.9c0.2-0.2,0.3-0.4,0.5-0.6c0.1-0.2,0.3-0.3,0.4-0.4s0.3-0.2,0.4-0.2c0.1,0,0.3-0.1,0.4-0.1c0.1,0,0.1,0,0.2,0
				c0.1,0,0.2,0,0.2,0s0.2,0,0.2,0.1c0.1,0,0.1,0,0.1,0.1s0,0,0.1,0.1s0,0,0,0.1c0,0,0,0.1,0,0.1C11.6,12.6,11.6,12.7,11.6,12.8z"/>
		</g>
		<g>
			<path d="M14.1,10.3c0,0.3,0,0.4-0.2,0.5S13.7,11,13.4,11c-0.3,0-0.4,0-0.5-0.1c-0.1-0.1-0.1-0.3-0.1-0.5c0-0.3,0-0.4,0.2-0.5
				s0.3-0.1,0.6-0.1c0.3,0,0.4,0,0.5,0.1C14.1,9.9,14.1,10.1,14.1,10.3z M14,18.6C14,18.6,14,18.6,14,18.6c0,0.1-0.1,0.1-0.1,0.2
				s-0.1,0-0.2,0s-0.2,0-0.3,0c-0.1,0-0.2,0-0.3,0s-0.1,0-0.2,0c0,0-0.1,0-0.1-0.1c0,0,0-0.1,0-0.1v-6.2c0,0,0-0.1,0-0.1
				c0,0,0-0.1,0.1-0.1c0,0,0.1,0,0.2,0s0.2,0,0.3,0c0.1,0,0.2,0,0.3,0s0.1,0,0.2,0s0.1,0,0.1,0.1s0,0.1,0,0.1V18.6z"/>
		</g>
		<g>
			<path d="M21.1,12.4C21.1,12.4,21.1,12.4,21.1,12.4c0,0.1,0,0.1,0,0.1s0,0,0,0.1c0,0,0,0.1,0,0.1L19,18.5c0,0.1,0,0.1-0.1,0.1
				c0,0-0.1,0.1-0.1,0.1s-0.1,0-0.2,0s-0.2,0-0.3,0s-0.3,0-0.3,0s-0.2,0-0.2,0c-0.1,0-0.1,0-0.1-0.1s-0.1-0.1-0.1-0.1l-2.1-5.8
				c0-0.1,0-0.1,0-0.1c0,0,0-0.1,0-0.1c0,0,0,0,0-0.1c0,0,0-0.1,0-0.1s0,0,0.1-0.1c0,0,0.1,0,0.2,0c0.1,0,0.2,0,0.3,0
				c0.1,0,0.2,0,0.3,0c0.1,0,0.1,0,0.2,0c0,0,0.1,0,0.1,0.1c0,0,0,0.1,0.1,0.1l1.7,5.1l0,0.1l0-0.1l1.7-5.1c0,0,0-0.1,0-0.1
				s0.1-0.1,0.1-0.1c0,0,0.1,0,0.2,0c0.1,0,0.2,0,0.3,0c0.1,0,0.2,0,0.3,0s0.1,0,0.2,0C21.1,12.3,21.1,12.3,21.1,12.4
				C21.1,12.3,21.1,12.4,21.1,12.4z"/>
		</g>
		<g>
			<path d="M27.5,15.2c0,0.2,0,0.3-0.1,0.4c-0.1,0.1-0.2,0.1-0.3,0.1H23c0,0.3,0,0.6,0.1,0.9c0.1,0.3,0.2,0.5,0.3,0.7
				s0.4,0.3,0.6,0.5c0.3,0.1,0.6,0.2,0.9,0.2c0.3,0,0.6,0,0.8-0.1c0.2,0,0.4-0.1,0.6-0.2s0.3-0.1,0.4-0.2c0.1,0,0.2-0.1,0.2-0.1
				c0,0,0.1,0,0.1,0s0,0,0.1,0.1s0,0.1,0,0.1s0,0.1,0,0.2c0,0.1,0,0.1,0,0.2s0,0.1,0,0.1c0,0,0,0.1,0,0.1c0,0,0,0.1-0.1,0.1
				c0,0-0.1,0.1-0.2,0.1s-0.3,0.1-0.5,0.2s-0.4,0.1-0.7,0.1c-0.3,0-0.5,0.1-0.8,0.1c-0.5,0-0.9-0.1-1.3-0.2c-0.4-0.1-0.7-0.4-1-0.6
				s-0.5-0.6-0.6-1s-0.2-0.9-0.2-1.5c0-0.5,0.1-1,0.2-1.4s0.3-0.8,0.6-1.1c0.3-0.3,0.6-0.5,0.9-0.7s0.8-0.2,1.2-0.2
				c0.5,0,0.9,0.1,1.2,0.2c0.3,0.2,0.6,0.4,0.8,0.6s0.4,0.6,0.5,0.9c0.1,0.4,0.2,0.7,0.2,1.1V15.2z M26.4,14.9
				c0-0.6-0.1-1.1-0.4-1.4S25.3,13,24.8,13c-0.3,0-0.5,0.1-0.7,0.2s-0.4,0.2-0.5,0.4c-0.1,0.2-0.3,0.4-0.3,0.6S23,14.6,23,14.9H26.4
				z"/>
		</g>
		<g>
			<path d="M32.8,12.8c0,0.1,0,0.2,0,0.3s0,0.1,0,0.2s0,0.1-0.1,0.1c0,0,0,0-0.1,0s-0.1,0-0.1,0c-0.1,0-0.1,0-0.2-0.1
				c-0.1,0-0.1,0-0.2-0.1s-0.2,0-0.3,0c-0.1,0-0.2,0-0.3,0.1s-0.2,0.1-0.3,0.2c-0.1,0.1-0.2,0.2-0.4,0.4s-0.3,0.4-0.4,0.6v4
				c0,0,0,0.1,0,0.1s0,0-0.1,0.1s-0.1,0-0.2,0s-0.2,0-0.3,0c-0.1,0-0.2,0-0.3,0s-0.1,0-0.2,0c0,0-0.1,0-0.1-0.1c0,0,0-0.1,0-0.1
				v-6.2c0,0,0-0.1,0-0.1s0,0,0.1-0.1s0.1,0,0.2,0s0.1,0,0.3,0c0.1,0,0.2,0,0.3,0c0.1,0,0.1,0,0.2,0s0.1,0,0.1,0.1c0,0,0,0.1,0,0.1
				v0.9c0.2-0.2,0.3-0.4,0.5-0.6c0.1-0.2,0.3-0.3,0.4-0.4s0.3-0.2,0.4-0.2c0.1,0,0.3-0.1,0.4-0.1c0.1,0,0.1,0,0.2,0
				c0.1,0,0.2,0,0.2,0s0.2,0,0.2,0.1c0.1,0,0.1,0,0.1,0.1s0,0,0.1,0.1s0,0,0,0.1c0,0,0,0.1,0,0.1C32.8,12.6,32.8,12.7,32.8,12.8z"/>
		</g>
		<g>
			<path d="M42.6,18.6C42.6,18.6,42.5,18.6,42.6,18.6c0,0.1-0.1,0.1-0.1,0.2c0,0-0.1,0-0.2,0s-0.1,0-0.2,0c-0.1,0-0.2,0-0.2,0
				s-0.1,0-0.2,0s-0.1,0-0.1-0.1s0-0.1,0-0.1v-0.8c-0.3,0.4-0.7,0.6-1,0.8c-0.3,0.2-0.7,0.3-1.1,0.3c-0.5,0-0.8-0.1-1.2-0.3
				s-0.6-0.4-0.8-0.7c-0.2-0.3-0.3-0.6-0.4-1.1s-0.1-0.8-0.1-1.3c0-0.5,0.1-1,0.2-1.4s0.3-0.8,0.5-1.1s0.5-0.5,0.8-0.7
				c0.3-0.2,0.7-0.2,1.1-0.2c0.4,0,0.7,0.1,1,0.2c0.3,0.2,0.6,0.4,0.9,0.7V9.5c0,0,0-0.1,0-0.1c0,0,0-0.1,0.1-0.1s0.1,0,0.2,0
				c0.1,0,0.2,0,0.3,0c0.1,0,0.2,0,0.3,0s0.1,0,0.2,0s0.1,0,0.1,0.1c0,0,0,0.1,0,0.1V18.6z M41.4,14.3c-0.3-0.4-0.6-0.7-0.9-0.9
				c-0.3-0.2-0.6-0.3-0.9-0.3c-0.3,0-0.5,0.1-0.7,0.2s-0.4,0.3-0.5,0.5c-0.1,0.2-0.2,0.5-0.3,0.8c-0.1,0.3-0.1,0.6-0.1,0.9
				c0,0.3,0,0.6,0.1,0.9c0,0.3,0.1,0.6,0.3,0.8s0.3,0.4,0.5,0.6s0.4,0.2,0.7,0.2c0.2,0,0.3,0,0.4-0.1c0.1,0,0.3-0.1,0.4-0.2
				s0.3-0.2,0.5-0.4s0.3-0.3,0.5-0.6V14.3z"/>
		</g>
		<g>
			<path d="M45.9,10.3c0,0.3,0,0.4-0.2,0.5S45.5,11,45.2,11c-0.3,0-0.4,0-0.5-0.1c-0.1-0.1-0.1-0.3-0.1-0.5c0-0.3,0-0.4,0.2-0.5
				s0.3-0.1,0.6-0.1c0.3,0,0.4,0,0.5,0.1C45.9,9.9,45.9,10.1,45.9,10.3z M45.8,18.6C45.8,18.6,45.8,18.6,45.8,18.6
				c0,0.1-0.1,0.1-0.1,0.2s-0.1,0-0.2,0s-0.2,0-0.3,0c-0.1,0-0.2,0-0.3,0s-0.1,0-0.2,0c0,0-0.1,0-0.1-0.1c0,0,0-0.1,0-0.1v-6.2
				c0,0,0-0.1,0-0.1c0,0,0-0.1,0.1-0.1c0,0,0.1,0,0.2,0s0.2,0,0.3,0c0.1,0,0.2,0,0.3,0s0.1,0,0.2,0s0.1,0,0.1,0.1s0,0.1,0,0.1V18.6z
				"/>
		</g>
		<g>
			<path d="M51.7,16.9c0,0.3-0.1,0.6-0.2,0.8c-0.1,0.2-0.3,0.5-0.5,0.6s-0.5,0.3-0.8,0.4s-0.6,0.1-1,0.1c-0.2,0-0.4,0-0.6-0.1
				c-0.2,0-0.4-0.1-0.5-0.1c-0.2-0.1-0.3-0.1-0.4-0.2s-0.2-0.1-0.2-0.2s-0.1-0.1-0.1-0.2s0-0.2,0-0.3c0-0.1,0-0.2,0-0.2s0-0.1,0-0.1
				s0-0.1,0.1-0.1c0,0,0.1,0,0.1,0c0,0,0.1,0,0.2,0.1c0.1,0.1,0.2,0.1,0.4,0.2c0.1,0.1,0.3,0.1,0.5,0.2s0.4,0.1,0.7,0.1
				c0.2,0,0.4,0,0.5-0.1s0.3-0.1,0.4-0.2s0.2-0.2,0.3-0.3c0.1-0.1,0.1-0.3,0.1-0.4c0-0.2,0-0.3-0.1-0.4c-0.1-0.1-0.2-0.2-0.4-0.3
				s-0.3-0.2-0.5-0.2s-0.4-0.1-0.6-0.2c-0.2-0.1-0.4-0.2-0.6-0.3c-0.2-0.1-0.4-0.2-0.5-0.4s-0.3-0.3-0.4-0.5
				c-0.1-0.2-0.1-0.4-0.1-0.7c0-0.2,0-0.5,0.1-0.7c0.1-0.2,0.2-0.4,0.4-0.6s0.4-0.3,0.7-0.4c0.3-0.1,0.6-0.2,1-0.2
				c0.2,0,0.3,0,0.5,0s0.3,0.1,0.4,0.1s0.2,0.1,0.3,0.1c0.1,0,0.2,0.1,0.2,0.1c0,0,0.1,0.1,0.1,0.1c0,0,0,0.1,0,0.1c0,0,0,0.1,0,0.1
				c0,0.1,0,0.1,0,0.2c0,0.1,0,0.1,0,0.2c0,0.1,0,0.1,0,0.1c0,0,0,0.1-0.1,0.1s0,0-0.1,0c0,0-0.1,0-0.2-0.1s-0.2-0.1-0.3-0.2
				s-0.3-0.1-0.4-0.2C50.1,13,50,13,49.7,13c-0.2,0-0.4,0-0.5,0.1s-0.3,0.1-0.4,0.2c-0.1,0.1-0.2,0.2-0.2,0.3c0,0.1-0.1,0.2-0.1,0.4
				c0,0.2,0,0.3,0.1,0.4s0.2,0.2,0.4,0.3s0.3,0.2,0.5,0.2s0.4,0.1,0.6,0.2c0.2,0.1,0.4,0.2,0.6,0.3c0.2,0.1,0.4,0.2,0.5,0.3
				s0.3,0.3,0.4,0.5C51.7,16.4,51.7,16.6,51.7,16.9z"/>
		</g>
		<g>
			<path d="M57.8,17.6c0,0.1,0,0.1,0,0.2s0,0.1,0,0.1c0,0,0,0.1,0,0.1c0,0-0.1,0.1-0.1,0.1c-0.1,0.1-0.2,0.1-0.3,0.2
				s-0.3,0.2-0.5,0.2c-0.2,0.1-0.4,0.1-0.6,0.2s-0.4,0.1-0.6,0.1c-0.4,0-0.8-0.1-1.2-0.2s-0.6-0.4-0.9-0.6c-0.2-0.3-0.4-0.6-0.5-1
				c-0.1-0.4-0.2-0.9-0.2-1.4c0-0.6,0.1-1.1,0.2-1.6c0.1-0.4,0.4-0.8,0.6-1.1c0.3-0.3,0.6-0.5,0.9-0.6c0.3-0.1,0.7-0.2,1.1-0.2
				c0.2,0,0.4,0,0.6,0.1c0.2,0,0.4,0.1,0.5,0.1s0.3,0.1,0.4,0.2c0.1,0.1,0.2,0.1,0.3,0.2s0.1,0.1,0.1,0.1c0,0,0,0.1,0.1,0.1
				s0,0.1,0,0.1s0,0.1,0,0.2c0,0.2,0,0.3-0.1,0.4s-0.1,0.1-0.2,0.1c-0.1,0-0.1,0-0.2-0.1c-0.1-0.1-0.2-0.2-0.3-0.2s-0.3-0.2-0.5-0.2
				c-0.2-0.1-0.4-0.1-0.7-0.1c-0.5,0-1,0.2-1.2,0.6c-0.3,0.4-0.4,1-0.4,1.8c0,0.4,0,0.7,0.1,1c0.1,0.3,0.2,0.5,0.3,0.7
				s0.3,0.3,0.5,0.4c0.2,0.1,0.5,0.1,0.7,0.1c0.3,0,0.5,0,0.7-0.1s0.4-0.2,0.5-0.3c0.1-0.1,0.3-0.2,0.4-0.3c0.1-0.1,0.2-0.1,0.2-0.1
				c0,0,0.1,0,0.1,0s0,0,0.1,0.1c0,0,0,0.1,0,0.2C57.8,17.5,57.8,17.5,57.8,17.6z"/>
		</g>
		<g>
			<path d="M64.5,18.6C64.5,18.6,64.5,18.6,64.5,18.6c0,0.1-0.1,0.1-0.1,0.2s-0.1,0-0.2,0s-0.2,0-0.3,0c-0.1,0-0.2,0-0.3,0
				s-0.1,0-0.2,0s-0.1,0-0.1-0.1s0-0.1,0-0.1V15c0-0.4,0-0.6-0.1-0.8s-0.1-0.4-0.2-0.6s-0.2-0.3-0.4-0.4c-0.2-0.1-0.4-0.1-0.6-0.1
				c-0.3,0-0.6,0.1-0.8,0.3s-0.6,0.5-0.9,0.9v4.3c0,0,0,0.1,0,0.1s0,0-0.1,0.1s-0.1,0-0.2,0s-0.2,0-0.3,0c-0.1,0-0.2,0-0.3,0
				s-0.1,0-0.2,0c0,0-0.1,0-0.1-0.1c0,0,0-0.1,0-0.1V9.4c0,0,0-0.1,0-0.1c0,0,0-0.1,0.1-0.1c0,0,0.1,0,0.2,0s0.2,0,0.3,0
				c0.1,0,0.2,0,0.3,0s0.1,0,0.2,0s0.1,0,0.1,0.1s0,0.1,0,0.1v3.7c0.3-0.3,0.6-0.6,1-0.8s0.7-0.2,1-0.2c0.4,0,0.8,0.1,1,0.2
				c0.3,0.1,0.5,0.3,0.7,0.6s0.3,0.5,0.4,0.8c0.1,0.3,0.1,0.7,0.1,1.1V18.6z"/>
		</g>
		<g>
			<path d="M71.2,18.6c0,0.1,0,0.1-0.1,0.1s-0.1,0-0.2,0.1s-0.2,0-0.3,0c-0.1,0-0.2,0-0.3,0c-0.1,0-0.1,0-0.2-0.1s0-0.1,0-0.1V18
				c-0.3,0.3-0.6,0.5-0.9,0.7c-0.3,0.2-0.7,0.2-1,0.2c-0.3,0-0.6,0-0.9-0.1c-0.3-0.1-0.5-0.2-0.7-0.4c-0.2-0.2-0.3-0.4-0.4-0.6
				c-0.1-0.2-0.2-0.5-0.2-0.8c0-0.3,0.1-0.6,0.2-0.9s0.3-0.5,0.6-0.6s0.6-0.3,1-0.4s0.8-0.1,1.3-0.1h0.8v-0.5c0-0.2,0-0.4-0.1-0.6
				s-0.1-0.3-0.2-0.5c-0.1-0.1-0.3-0.2-0.4-0.3S69,13,68.7,13c-0.3,0-0.5,0-0.7,0.1c-0.2,0.1-0.4,0.1-0.6,0.2
				c-0.2,0.1-0.3,0.2-0.4,0.2c-0.1,0.1-0.2,0.1-0.2,0.1c0,0-0.1,0-0.1,0s-0.1,0-0.1-0.1c0,0,0-0.1,0-0.1s0-0.1,0-0.2
				c0-0.1,0-0.2,0-0.3c0-0.1,0.1-0.1,0.1-0.2c0.1-0.1,0.2-0.1,0.3-0.2s0.3-0.2,0.5-0.2s0.4-0.1,0.6-0.2s0.5-0.1,0.7-0.1
				c0.4,0,0.8,0.1,1.1,0.2s0.6,0.2,0.8,0.4s0.3,0.4,0.4,0.7s0.1,0.6,0.1,1V18.6z M70.1,15.8h-1c-0.3,0-0.6,0-0.8,0.1
				s-0.4,0.1-0.6,0.2s-0.3,0.2-0.3,0.4c-0.1,0.1-0.1,0.3-0.1,0.5c0,0.3,0.1,0.6,0.3,0.8c0.2,0.2,0.5,0.3,0.9,0.3
				c0.3,0,0.6-0.1,0.8-0.2c0.3-0.2,0.5-0.4,0.8-0.7V15.8z"/>
		</g>
		<g>
			<path d="M76.9,12.8c0,0.1,0,0.2,0,0.3s0,0.1,0,0.2s0,0.1-0.1,0.1c0,0,0,0-0.1,0s-0.1,0-0.1,0c-0.1,0-0.1,0-0.2-0.1
				c-0.1,0-0.1,0-0.2-0.1s-0.2,0-0.3,0c-0.1,0-0.2,0-0.3,0.1s-0.2,0.1-0.3,0.2c-0.1,0.1-0.2,0.2-0.4,0.4s-0.3,0.4-0.4,0.6v4
				c0,0,0,0.1,0,0.1s0,0-0.1,0.1s-0.1,0-0.2,0s-0.2,0-0.3,0c-0.1,0-0.2,0-0.3,0s-0.1,0-0.2,0c0,0-0.1,0-0.1-0.1c0,0,0-0.1,0-0.1
				v-6.2c0,0,0-0.1,0-0.1s0,0,0.1-0.1s0.1,0,0.2,0s0.1,0,0.3,0c0.1,0,0.2,0,0.3,0c0.1,0,0.1,0,0.2,0s0.1,0,0.1,0.1c0,0,0,0.1,0,0.1
				v0.9c0.2-0.2,0.3-0.4,0.5-0.6c0.1-0.2,0.3-0.3,0.4-0.4s0.3-0.2,0.4-0.2c0.1,0,0.3-0.1,0.4-0.1c0.1,0,0.1,0,0.2,0
				c0.1,0,0.2,0,0.2,0s0.2,0,0.2,0.1c0.1,0,0.1,0,0.1,0.1s0,0,0.1,0.1s0,0,0,0.1c0,0,0,0.1,0,0.1C76.9,12.6,76.9,12.7,76.9,12.8z"/>
		</g>
		<g>
			<path d="M83.1,12.7c0,0.2,0,0.3-0.1,0.3c0,0.1-0.1,0.1-0.2,0.1H82c0.2,0.2,0.3,0.3,0.3,0.5s0.1,0.4,0.1,0.6
				c0,0.4-0.1,0.7-0.2,0.9S82,15.8,81.8,16c-0.2,0.2-0.5,0.3-0.8,0.4s-0.6,0.2-1,0.2c-0.3,0-0.5,0-0.7-0.1c-0.2-0.1-0.4-0.1-0.5-0.2
				c-0.1,0.1-0.1,0.2-0.2,0.3c-0.1,0.1-0.1,0.2-0.1,0.4c0,0.2,0.1,0.3,0.2,0.4c0.1,0.1,0.3,0.2,0.6,0.2l1.6,0.1
				c0.3,0,0.6,0.1,0.8,0.1s0.5,0.2,0.7,0.3s0.3,0.3,0.4,0.5s0.2,0.4,0.2,0.7c0,0.3-0.1,0.6-0.2,0.8s-0.3,0.5-0.5,0.7
				c-0.2,0.2-0.6,0.3-0.9,0.5s-0.8,0.2-1.3,0.2c-0.5,0-0.9,0-1.3-0.1c-0.3-0.1-0.6-0.2-0.9-0.3s-0.4-0.3-0.5-0.5s-0.2-0.4-0.2-0.7
				c0-0.2,0-0.3,0.1-0.4s0.1-0.3,0.2-0.4c0.1-0.1,0.2-0.2,0.3-0.4c0.1-0.1,0.2-0.2,0.4-0.3c-0.2-0.1-0.4-0.3-0.5-0.4
				c-0.1-0.2-0.2-0.4-0.2-0.6c0-0.3,0.1-0.5,0.2-0.7s0.3-0.4,0.4-0.6c-0.1-0.2-0.3-0.4-0.3-0.6s-0.1-0.5-0.1-0.8
				c0-0.4,0.1-0.7,0.2-0.9s0.3-0.5,0.5-0.7s0.5-0.3,0.8-0.4c0.3-0.1,0.6-0.2,1-0.2c0.2,0,0.4,0,0.5,0c0.2,0,0.3,0,0.5,0.1h1.9
				c0.1,0,0.1,0,0.2,0.1C83.1,12.4,83.1,12.6,83.1,12.7z M81.9,19.2c0-0.3-0.1-0.5-0.3-0.6c-0.2-0.1-0.5-0.2-0.9-0.2l-1.6-0.1
				c-0.1,0.1-0.3,0.2-0.4,0.3c-0.1,0.1-0.2,0.2-0.2,0.3s-0.1,0.2-0.1,0.3c0,0.1,0,0.2,0,0.3c0,0.3,0.2,0.5,0.5,0.7s0.7,0.2,1.3,0.2
				c0.3,0,0.6,0,0.9-0.1c0.2-0.1,0.4-0.2,0.6-0.3s0.2-0.2,0.3-0.4C81.9,19.5,81.9,19.4,81.9,19.2z M81.4,14.3c0-0.4-0.1-0.7-0.3-1
				c-0.2-0.2-0.6-0.4-1-0.4c-0.2,0-0.4,0-0.6,0.1c-0.2,0.1-0.3,0.2-0.4,0.3c-0.1,0.1-0.2,0.3-0.2,0.4c-0.1,0.2-0.1,0.3-0.1,0.5
				c0,0.4,0.1,0.7,0.3,1c0.2,0.2,0.6,0.3,1,0.3c0.2,0,0.4,0,0.6-0.1s0.3-0.2,0.4-0.3c0.1-0.1,0.2-0.3,0.2-0.4
				C81.4,14.7,81.4,14.5,81.4,14.3z"/>
		</g>
		<g>
			<path d="M89.7,15.2c0,0.2,0,0.3-0.1,0.4c-0.1,0.1-0.2,0.1-0.3,0.1h-4.1c0,0.3,0,0.6,0.1,0.9c0.1,0.3,0.2,0.5,0.3,0.7
				s0.4,0.3,0.6,0.5c0.3,0.1,0.6,0.2,0.9,0.2c0.3,0,0.6,0,0.8-0.1c0.2,0,0.4-0.1,0.6-0.2s0.3-0.1,0.4-0.2c0.1,0,0.2-0.1,0.2-0.1
				c0,0,0.1,0,0.1,0s0,0,0.1,0.1s0,0.1,0,0.1s0,0.1,0,0.2c0,0.1,0,0.1,0,0.2s0,0.1,0,0.1c0,0,0,0.1,0,0.1c0,0,0,0.1-0.1,0.1
				c0,0-0.1,0.1-0.2,0.1s-0.3,0.1-0.5,0.2s-0.4,0.1-0.7,0.1c-0.3,0-0.5,0.1-0.8,0.1c-0.5,0-0.9-0.1-1.3-0.2c-0.4-0.1-0.7-0.4-1-0.6
				s-0.5-0.6-0.6-1s-0.2-0.9-0.2-1.5c0-0.5,0.1-1,0.2-1.4s0.3-0.8,0.6-1.1c0.3-0.3,0.6-0.5,0.9-0.7s0.8-0.2,1.2-0.2
				c0.5,0,0.9,0.1,1.2,0.2c0.3,0.2,0.6,0.4,0.8,0.6s0.4,0.6,0.5,0.9c0.1,0.4,0.2,0.7,0.2,1.1V15.2z M88.6,14.9
				c0-0.6-0.1-1.1-0.4-1.4S87.5,13,87,13c-0.3,0-0.5,0.1-0.7,0.2s-0.4,0.2-0.5,0.4c-0.1,0.2-0.3,0.4-0.3,0.6s-0.1,0.5-0.1,0.7H88.6z
				"/>
		</g>
	</g>
	<g>
	</g>
	<g>
	</g>
	<g>
	</g>
	<g>
	</g>
	<g>
	</g>
	<g>
	</g>
	<g>
	</g>
	<g>
	</g>
	<g>
	</g>
	<g>
	</g>
	<g>
	</g>
	<g>
	</g>
	<g>
	</g>
	<g>
	</g>
	<g>
	</g>
</g>
</svg>
