<?xml version="1.0" encoding="utf-8"?>
<!-- Generator: Adobe Illustrator 15.1.0, SVG Export Plug-In . SVG Version: 6.00 Build 0)  -->
<!DOCTYPE svg PUBLIC "-//W3C//DTD SVG 1.1//EN" "http://www.w3.org/Graphics/SVG/1.1/DTD/svg11.dtd">
<svg version="1.1" id="Layer_1" xmlns="http://www.w3.org/2000/svg" xmlns:xlink="http://www.w3.org/1999/xlink" x="0px" y="0px"
	 width="80px" height="79.999px" viewBox="0 0 80 79.999" enable-background="new 0 0 80 79.999" xml:space="preserve">
<path fill="#FFFFFF" d="M47.655,40.117c0,3.589-2.91,6.5-6.5,6.5s-6.5-2.91-6.5-6.5c0-3.59,2.91-6.5,6.5-6.5
	S47.655,36.527,47.655,40.117"/>
<path fill="#FFFFFF" d="M59.589,59.248c0,3.59-2.91,6.5-6.5,6.5c-3.591,0-6.5-2.91-6.5-6.5s2.909-6.5,6.5-6.5
	C56.679,52.748,59.589,55.658,59.589,59.248"/>
<path fill="#FFFFFF" d="M34.964,59.059c0,3.591-2.91,6.5-6.5,6.5c-3.59,0-6.5-2.909-6.5-6.5c0-3.59,2.91-6.5,6.5-6.5
	C32.054,52.559,34.964,55.469,34.964,59.059"/>
<path fill="#FFFFFF" d="M46.283,23.9c-2.431,2.642-6.542,2.813-9.184,0.383c-2.642-2.431-2.814-6.543-0.383-9.185
	c2.43-2.642,6.542-2.813,9.184-0.382C48.543,17.146,48.715,21.258,46.283,23.9"/>
<path fill="#FFFFFF" d="M69,35.499c0,3.59-2.91,6.5-6.5,6.5s-6.5-2.91-6.5-6.5s2.91-6.5,6.5-6.5S69,31.909,69,35.499"/>
<path fill="#FFFFFF" d="M27,35.499c0,3.59-2.91,6.5-6.5,6.5s-6.5-2.91-6.5-6.5s2.91-6.5,6.5-6.5S27,31.909,27,35.499"/>
<polygon fill="none" stroke="#FFFFFF" stroke-width="2" stroke-miterlimit="10" points="41.24,17.553 20.83,33.694 29.309,59.649
	40.828,40.139 53.414,58.694 60.328,32.196 "/>
<polyline fill="none" stroke="#FFFFFF" stroke-width="2" stroke-miterlimit="10" points="20,35.999 41.154,40.117 42.671,17.576 "/>
<line fill="none" stroke="#FFFFFF" stroke-width="2" stroke-miterlimit="10" x1="41.155" y1="40.117" x2="62" y2="35.999"/>
<line fill="none" stroke="#FFFFFF" stroke-width="2" stroke-miterlimit="10" x1="28.464" y1="59.059" x2="53.09" y2="59.248"/>
</svg>
